<?xml version="1.0" encoding="UTF-8"?>
<svg version="1.1" xmlns="http://www.w3.org/2000/svg" width="500" height="500">
<path d="M0 0 C3.25 0.5625 3.25 0.5625 5.75 3.5625 C8.04345513 7.73241841 9.78555847 12.13044252 11.5 16.5625 C11.75845703 17.22636719 12.01691406 17.89023437 12.28320312 18.57421875 C22.07955493 45.16804846 6.80196655 80.672949 -2.75 105.5625 C-3.08 105.8925 -3.41 106.2225 -3.75 106.5625 C-4.56315373 111.84799926 -2.61566934 115.05662356 -0.23828125 119.5703125 C16.79600614 153.81772495 21.13886208 196.13735302 15.25 233.5625 C15.15348145 234.23619629 15.05696289 234.90989258 14.95751953 235.60400391 C13.23179146 247.62742621 10.00258622 259.02576617 6.25 270.5625 C6.04117187 271.21879395 5.83234375 271.87508789 5.6171875 272.55126953 C-0.54868604 291.78365674 -11.01398725 309.14645669 -22.6875 325.5 C-23.25557373 326.30034668 -23.82364746 327.10069336 -24.40893555 327.92529297 C-24.94301025 328.66021973 -25.47708496 329.39514648 -26.02734375 330.15234375 C-26.74265259 331.14028931 -26.74265259 331.14028931 -27.47241211 332.14819336 C-27.89401611 332.61491455 -28.31562012 333.08163574 -28.75 333.5625 C-29.41 333.5625 -30.07 333.5625 -30.75 333.5625 C-30.98976563 334.119375 -31.22953125 334.67625 -31.4765625 335.25 C-33.03071266 338.07226041 -34.9474174 340.18958607 -37.125 342.5625 C-37.89585937 343.408125 -38.66671875 344.25375 -39.4609375 345.125 C-40.21632813 345.929375 -40.97171875 346.73375 -41.75 347.5625 C-42.46414063 348.325625 -43.17828125 349.08875 -43.9140625 349.875 C-45.75 351.5625 -45.75 351.5625 -47.75 351.5625 C-47.75 352.2225 -47.75 352.8825 -47.75 353.5625 C-48.41 353.5625 -49.07 353.5625 -49.75 353.5625 C-49.75 354.2225 -49.75 354.8825 -49.75 355.5625 C-50.41 355.5625 -51.07 355.5625 -51.75 355.5625 C-51.75 356.2225 -51.75 356.8825 -51.75 357.5625 C-53.4 358.2225 -55.05 358.8825 -56.75 359.5625 C-56.75 360.2225 -56.75 360.8825 -56.75 361.5625 C-58.07592773 362.79589844 -58.07592773 362.79589844 -59.93359375 364.171875 C-60.94836792 364.92936035 -60.94836792 364.92936035 -61.98364258 365.70214844 C-62.71091553 366.23356445 -63.43818848 366.76498047 -64.1875 367.3125 C-64.91799561 367.85165039 -65.64849121 368.39080078 -66.40112305 368.94628906 C-80.85488576 379.5625 -80.85488576 379.5625 -84.75 379.5625 C-84.75 380.2225 -84.75 380.8825 -84.75 381.5625 C-131.60739707 408.15723888 -188.33785764 416.80189517 -240.75 402.5625 C-255.79859354 398.30642354 -269.77487081 392.83417069 -283.5 385.33203125 C-285.89865167 384.02603461 -288.29591475 382.75886656 -290.75 381.5625 C-290.75 380.9025 -290.75 380.2425 -290.75 379.5625 C-291.29140625 379.47355469 -291.8328125 379.38460938 -292.390625 379.29296875 C-295.50966352 378.32730616 -297.80183452 376.70989233 -300.5 374.875 C-301.55445313 374.15828125 -302.60890625 373.4415625 -303.6953125 372.703125 C-306.93018341 370.43623337 -310.10346509 368.10950065 -313.2265625 365.69140625 C-314.76676961 364.48194555 -314.76676961 364.48194555 -316.75 363.5625 C-316.75 362.9025 -316.75 362.2425 -316.75 361.5625 C-317.41 361.5625 -318.07 361.5625 -318.75 361.5625 C-318.75 360.9025 -318.75 360.2425 -318.75 359.5625 C-320.4 358.9025 -322.05 358.2425 -323.75 357.5625 C-323.75 356.9025 -323.75 356.2425 -323.75 355.5625 C-324.41 355.5625 -325.07 355.5625 -325.75 355.5625 C-325.75 354.9025 -325.75 354.2425 -325.75 353.5625 C-326.41 353.5625 -327.07 353.5625 -327.75 353.5625 C-327.75 352.9025 -327.75 352.2425 -327.75 351.5625 C-328.62591797 351.17384766 -328.62591797 351.17384766 -329.51953125 350.77734375 C-340.08705395 345.02165275 -347.75511729 332.01144373 -354.8125 322.5625 C-355.30210205 321.91531006 -355.7917041 321.26812012 -356.29614258 320.60131836 C-359.75 315.91354302 -359.75 315.91354302 -359.75 312.5625 C-360.41 312.5625 -361.07 312.5625 -361.75 312.5625 C-376.51376506 292.72511909 -383.78405572 266.47378868 -388.75 242.5625 C-388.90243164 241.87961914 -389.05486328 241.19673828 -389.21191406 240.49316406 C-394.88805825 214.39270837 -393.58453825 184.4559602 -387.75 158.5625 C-387.56808105 157.71929199 -387.38616211 156.87608398 -387.19873047 156.00732422 C-384.55870955 144.02460195 -380.3514688 132.83039988 -375.58447266 121.54394531 C-374.60938858 119.22861987 -373.67240963 116.89927106 -372.75 114.5625 C-372.09 114.5625 -371.43 114.5625 -370.75 114.5625 C-370.75 113.2425 -370.75 111.9225 -370.75 110.5625 C-370.09 110.5625 -369.43 110.5625 -368.75 110.5625 C-368.67910156 109.90636719 -368.60820312 109.25023437 -368.53515625 108.57421875 C-367.44710336 104.40064273 -365.39448994 101.05643321 -363.1875 97.375 C-362.51303833 96.23998047 -362.51303833 96.23998047 -361.82495117 95.08203125 C-358.24402998 89.16093275 -354.22167371 83.83963046 -349.75 78.5625 C-347.88433368 76.11174306 -346.03376409 73.65090847 -344.1953125 71.1796875 C-343.71835937 70.64601563 -343.24140625 70.11234375 -342.75 69.5625 C-342.09 69.5625 -341.43 69.5625 -340.75 69.5625 C-340.440625 68.94375 -340.13125 68.325 -339.8125 67.6875 C-339.125 66.3125 -338.4375 64.9375 -337.75 63.5625 C-337.09 63.5625 -336.43 63.5625 -335.75 63.5625 C-335.75 62.9025 -335.75 62.2425 -335.75 61.5625 C-335.09 61.5625 -334.43 61.5625 -333.75 61.5625 C-333.75 60.9025 -333.75 60.2425 -333.75 59.5625 C-331.33463039 56.9802792 -328.46404648 54.82101541 -325.75 52.5625 C-325.20778809 52.09875977 -324.66557617 51.63501953 -324.10693359 51.15722656 C-313.61855871 42.1885313 -302.63938126 34.55996193 -290.75 27.5625 C-290.0585791 27.15016113 -289.3671582 26.73782227 -288.65478516 26.31298828 C-244.78794377 0.47449172 -186.58055782 -5.72156707 -137.48925781 6.80664062 C-122.08758359 11.05651437 -106.95904316 16.22020996 -92.75 23.5625 C-90.75046147 24.5634224 -88.75059773 25.56369635 -86.75 26.5625 C-86.75 27.2225 -86.75 27.8825 -86.75 28.5625 C-85.43 28.5625 -84.11 28.5625 -82.75 28.5625 C-82.75 29.2225 -82.75 29.8825 -82.75 30.5625 C-81.44675781 30.94921875 -81.44675781 30.94921875 -80.1171875 31.34375 C-76.69125685 32.58376202 -73.9390832 34.10281535 -70.875 36.0625 C-69.42480469 36.97515625 -69.42480469 36.97515625 -67.9453125 37.90625 C-67.22085937 38.4528125 -66.49640625 38.999375 -65.75 39.5625 C-65.75 40.2225 -65.75 40.8825 -65.75 41.5625 C-65.04488281 41.7996875 -64.33976562 42.036875 -63.61328125 42.28125 C-60.24713132 43.78752173 -57.78016827 45.71834517 -54.9375 48.0625 C-53.96167969 48.8565625 -52.98585938 49.650625 -51.98046875 50.46875 C-51.24441406 51.1596875 -50.50835937 51.850625 -49.75 52.5625 C-49.75 53.2225 -49.75 53.8825 -49.75 54.5625 C-49.09 54.5625 -48.43 54.5625 -47.75 54.5625 C-47.75 55.2225 -47.75 55.8825 -47.75 56.5625 C-47.09 56.5625 -46.43 56.5625 -45.75 56.5625 C-45.75 57.2225 -45.75 57.8825 -45.75 58.5625 C-45.15703125 58.830625 -44.5640625 59.09875 -43.953125 59.375 C-36.72821004 63.26928041 -31.66513625 71.21750593 -26.75 77.5625 C-23.68379849 71.1369811 -21.42811654 64.69007356 -19.47265625 57.8515625 C-19.03281654 56.34014175 -19.03281654 56.34014175 -18.58409119 54.79818726 C-17.96688932 52.67280199 -17.3527256 50.54653233 -16.74145508 48.41943359 C-15.82456222 45.22946574 -14.89852267 42.04227357 -13.97070312 38.85546875 C-10.91644236 28.3251513 -7.94299372 17.78357325 -5.25611877 7.15274048 C-3.61649572 0.73973776 -3.61649572 0.73973776 0 0 Z " fill="#0C0B09" transform="translate(437.75,38.4375)"/>
<path d="M0 0 C9.20148106 8.26062932 17.88274486 16.91241868 25.30639648 26.84155273 C25.94577148 27.58920898 26.58514648 28.33686523 27.24389648 29.10717773 C28.94547433 33.48623836 27.07721509 36.54528223 25.30639648 40.71655273 C24.76402344 42.06197144 24.76402344 42.06197144 24.21069336 43.43457031 C22.93287141 46.58044375 21.62030427 49.7105867 20.30639648 52.84155273 C19.79250461 54.08289172 19.27951462 55.32460437 18.76733398 56.56665039 C15.00703924 65.68408327 11.17832726 74.77100793 7.30639648 83.84155273 C6.90356445 84.78820801 6.50073242 85.73486328 6.08569336 86.71020508 C1.99263912 96.28728344 -2.52319045 105.52547338 -7.47094727 114.68920898 C-9.64482419 118.72263325 -11.71694228 122.80114392 -13.75610352 126.90405273 C-14.08223633 127.55962158 -14.40836914 128.21519043 -14.74438477 128.890625 C-15.72908827 130.87346422 -16.71171844 132.85731649 -17.69360352 134.84155273 C-25.13297193 149.87352814 -32.70480702 164.66507315 -41.69360352 178.84155273 C-46.14228585 177.35865862 -48.55729276 174.09798406 -50.61889648 170.00415039 C-51.5009353 167.90268373 -52.32131139 165.78438674 -53.13110352 163.65405273 C-56.55943395 155.09783357 -60.57562623 146.8918885 -64.81860352 138.71655273 C-65.40440186 137.57935791 -65.9902002 136.44216309 -66.59375 135.27050781 C-69.63921167 129.44950069 -72.76001071 124.02492172 -76.81811523 118.84594727 C-77.69360352 116.84155273 -77.69360352 116.84155273 -76.95751953 114.24121094 C-75.49675321 111.46781472 -73.78983049 109.29083177 -71.75610352 106.90405273 C-69.01646912 103.64851316 -66.31923234 100.3861202 -63.72485352 97.01342773 C-63.23106201 96.37268311 -62.73727051 95.73193848 -62.22851562 95.07177734 C-61.25606012 93.80521492 -60.28802546 92.53524444 -59.32470703 91.26171875 C-58.15987911 89.75206965 -56.93191194 88.29153781 -55.69360352 86.84155273 C-55.03360352 86.84155273 -54.37360352 86.84155273 -53.69360352 86.84155273 C-53.43579102 86.11967773 -53.17797852 85.39780273 -52.91235352 84.65405273 C-51.24358541 80.80304941 -48.83100421 77.70582487 -46.34985352 74.34155273 C-43.11038636 69.45179099 -41.51824314 64.68190933 -42.69360352 58.84155273 C-46.50962635 48.90133521 -51.7015984 40.83622281 -60.69360352 34.84155273 C-61.02954102 32.33764648 -61.02954102 32.33764648 -61.06860352 29.27905273 C-61.52174195 22.13998493 -63.36528188 17.026058 -68.59204102 12.02514648 C-75.29321817 6.69758227 -81.74507165 5.2660883 -90.23266602 5.39233398 C-96.88612184 6.25593152 -103.58848598 9.1149243 -107.74438477 14.49780273 C-112.49999714 18.27709734 -117.48425165 17.68371828 -123.38110352 17.65405273 C-124.51483398 17.69852539 -125.64856445 17.74299805 -126.81665039 17.78881836 C-134.64475171 17.81137773 -138.78812782 16.17355327 -144.50415039 10.80712891 C-150.80623255 5.14945011 -158.36884298 4.17500684 -166.58032227 4.45483398 C-171.19382453 5.0279039 -174.72343154 6.48133239 -178.69360352 8.84155273 C-179.61399414 9.33268555 -179.61399414 9.33268555 -180.55297852 9.83374023 C-187.2216314 13.8762422 -191.05077047 21.1273215 -194.13110352 28.09155273 C-196.45960439 32.18971427 -199.87917926 35.10423766 -203.69360352 37.84155273 C-204.35360352 37.84155273 -205.01360352 37.84155273 -205.69360352 37.84155273 C-205.69360352 38.50155273 -205.69360352 39.16155273 -205.69360352 39.84155273 C-207.84899795 41.61728685 -210.0191888 43.29956156 -212.25610352 44.96655273 C-217.73235151 49.17606025 -222.53594712 53.27889522 -226.69360352 58.84155273 C-227.4709082 59.88053711 -228.24821289 60.91952148 -229.04907227 61.98999023 C-233.24392701 67.70105753 -237.14315738 73.49560577 -240.75610352 79.59155273 C-243.91822046 84.85532057 -247.48230806 89.27996299 -251.71313477 93.72045898 C-253.73032987 95.79044815 -253.73032987 95.79044815 -255.33032227 98.11889648 C-255.78020508 98.68737305 -256.23008789 99.25584961 -256.69360352 99.84155273 C-257.35360352 99.84155273 -258.01360352 99.84155273 -258.69360352 99.84155273 C-258.92821289 100.3894043 -259.16282227 100.93725586 -259.40454102 101.50170898 C-261.03246782 104.45664279 -263.09471353 106.74189032 -265.31860352 109.27905273 C-278.84553823 125.17491764 -286.81111267 144.42872686 -290.69360352 164.84155273 C-290.86110107 165.72053223 -291.02859863 166.59951172 -291.20117188 167.50512695 C-292.94227409 177.60826306 -293.0676743 187.58320714 -293.14990234 197.80297852 C-293.17146606 200.05840101 -293.21080493 202.31298251 -293.25219727 204.56811523 C-293.25231308 205.25555817 -293.25242889 205.9430011 -293.25254822 206.65127563 C-293.35392796 211.50426145 -293.35392796 211.50426145 -295.18920898 213.32666016 C-297.66819585 215.82294603 -297.17517871 219.02116132 -297.20532227 222.35327148 C-297.22327347 223.08149612 -297.24122467 223.80972076 -297.25971985 224.56001282 C-297.31384565 226.88296744 -297.34772432 229.20571639 -297.38110352 231.52905273 C-297.41427476 233.10525325 -297.44876425 234.68142661 -297.48461914 236.25756836 C-297.56957282 240.1187481 -297.63637227 243.97986661 -297.69360352 247.84155273 C-300.80240593 244.92333034 -302.52489673 241.63489085 -304.38110352 237.84155273 C-304.72633057 237.13949707 -305.07155762 236.43744141 -305.42724609 235.71411133 C-314.8613949 216.26511933 -321.02686764 197.12348599 -324.69360352 175.84155273 C-324.96237305 174.6156543 -324.96237305 174.6156543 -325.23657227 173.36499023 C-332.07837942 135.58885844 -324.70260223 92.40377761 -306.69360352 58.84155273 C-306.18829102 57.88764648 -305.68297852 56.93374023 -305.16235352 55.95092773 C-303.70137716 53.23102495 -302.19961341 50.53672369 -300.69360352 47.84155273 C-300.20762695 46.92245117 -299.72165039 46.00334961 -299.22094727 45.05639648 C-291.59678243 31.13808082 -280.57581829 19.28724789 -269.69360352 7.84155273 C-268.77708008 6.8631543 -268.77708008 6.8631543 -267.84204102 5.86499023 C-260.00813296 -2.26593803 -250.94273706 -8.81622711 -241.69360352 -15.22094727 C-240.85603516 -15.80569824 -240.0184668 -16.39044922 -239.15551758 -16.99291992 C-238.36371094 -17.53352051 -237.5719043 -18.07412109 -236.75610352 -18.63110352 C-236.04583008 -19.11844971 -235.33555664 -19.6057959 -234.60375977 -20.10791016 C-232.69360352 -21.15844727 -232.69360352 -21.15844727 -229.69360352 -21.15844727 C-229.69360352 -21.81844727 -229.69360352 -22.47844727 -229.69360352 -23.15844727 C-210.06260457 -32.80787353 -190.93992835 -40.85670441 -169.31860352 -44.78344727 C-168.17649414 -45.00000977 -167.03438477 -45.21657227 -165.85766602 -45.43969727 C-107.58751307 -56.16670269 -44.44017408 -39.18002629 0 0 Z " fill="#F3CC5D" transform="translate(380.693603515625,96.158447265625)"/>
<path d="M0 0 C17.09036243 4.38214421 33.92957741 21.54692467 47 33 C47.72058594 33.60972656 48.44117188 34.21945313 49.18359375 34.84765625 C57.78765792 42.1706324 65.78030813 50.31358572 73 59 C73.44005371 59.52625977 73.88010742 60.05251953 74.33349609 60.59472656 C81.01457895 68.6085246 87.43062845 76.79133377 93.625 85.1875 C94.51264038 86.38983276 94.51264038 86.38983276 95.41821289 87.61645508 C98.12703462 91.32001743 100.73884421 94.9988768 103 99 C102.50371094 99.4846875 102.00742188 99.969375 101.49609375 100.46875 C97.36992221 104.54011471 93.45393195 108.70674812 89.67578125 113.1015625 C87.23731309 115.86402294 84.63690415 118.42741059 82 121 C70.02241306 115.75491291 63.87578607 99.91548613 58.6875 88.8125 C51.49473509 73.47170995 42.46745128 54.84430707 28 45 C26.68 45 25.36 45 24 45 C24 46.98 24 48.96 24 51 C24.66 51.33 25.32 51.66 26 52 C26 52.66 26 53.32 26 54 C27.485 54.495 27.485 54.495 29 55 C29 55.66 29 56.32 29 57 C29.66 57 30.32 57 31 57 C33.96687582 60.43226811 36.45681857 64.24717983 39 68 C39.3928418 68.5784668 39.78568359 69.15693359 40.19042969 69.75292969 C47.20084345 80.20904399 52.65081865 91.20184427 57.89355469 102.62890625 C59.52413187 106.1232058 61.25652178 109.56081009 63 113 C62.06027344 112.83628906 61.12054688 112.67257812 60.15234375 112.50390625 C55.2936246 111.80980351 50.46065789 111.89165691 45.5625 111.9375 C44.17901367 111.94426758 44.17901367 111.94426758 42.76757812 111.95117188 C40.51164952 111.96286062 38.25586033 111.97924545 36 112 C35.67 113.65 35.34 115.3 35 117 C36.22074219 117.02578125 37.44148438 117.0515625 38.69921875 117.078125 C53.83904513 117.53933825 65.58573065 120.74904359 79 128 C79 128.66 79 129.32 79 130 C77.5528393 131.19548057 76.1033094 132.38825553 74.63964844 133.56347656 C72.04111094 135.84009876 70.08692873 138.55712394 68.125 141.375 C67.69574219 141.98657959 67.26648438 142.59815918 66.82421875 143.22827148 C60.63379609 152.23951545 55.94419121 161.9346303 51.34082031 171.82543945 C43.62932852 188.33680967 34.80079569 200.99890736 22 214 C17.09732876 212.64550825 13.66284679 210.57075756 9.625 207.5 C8.80708984 206.89478516 8.80708984 206.89478516 7.97265625 206.27734375 C6.60550273 205.23912942 5.29686247 204.12478686 4 203 C4 202.34 4 201.68 4 201 C3.34 201 2.68 201 2 201 C0.3629533 199.14082614 -1.13862479 197.28772627 -2.625 195.3125 C-3.0694043 194.72380127 -3.51380859 194.13510254 -3.97167969 193.52856445 C-20.98436302 170.66739067 -28.43462878 144.6158164 -28.20581055 116.23046875 C-28.18725625 113.84364396 -28.18530361 111.45720278 -28.18554688 109.0703125 C-28.18064052 107.54426747 -28.1748161 106.01822505 -28.16796875 104.4921875 C-28.16685593 103.78287079 -28.1657431 103.07355408 -28.16459656 102.34274292 C-28.13501689 99.28947725 -27.97341629 96.92024886 -27 94 C-26.93062938 91.77181559 -26.91542916 89.54165476 -26.9375 87.3125 C-26.94652344 86.13300781 -26.95554687 84.95351563 -26.96484375 83.73828125 C-26.97644531 82.83464844 -26.98804687 81.93101562 -27 81 C-28.65 81 -30.3 81 -32 81 C-33.61114886 92.18527318 -34.38370884 103.20707107 -34.625 114.5 C-34.66333788 116.01694557 -34.70239761 117.53387307 -34.7421875 119.05078125 C-34.83639394 122.70035187 -34.92101652 126.3500643 -35 130 C-42.49427227 125.17035787 -42.49427227 125.17035787 -44 123 C-44.38818359 120.07104492 -44.38818359 120.07104492 -44.3984375 116.48046875 C-44.40471413 115.51070351 -44.40471413 115.51070351 -44.41111755 114.52134705 C-44.41743224 112.40957984 -44.39845996 110.29913415 -44.375 108.1875 C-44.37067963 107.46681335 -44.36635925 106.74612671 -44.36190796 106.00360107 C-44.18010613 80.18343766 -39.78770626 56.12848526 -28 33 C-27.34 33 -26.68 33 -26 33 C-25.92394531 32.46246094 -25.84789063 31.92492187 -25.76953125 31.37109375 C-22.04671752 19.90029205 -8.45366318 8.31038075 0 0 Z " fill="#21474F" transform="translate(138,191)"/>
<path d="M0 0 C2.19995286 1.30761106 3.79638291 2.5513276 5.52026367 4.45898438 C9.97160113 9.30672316 13.78403065 11.25664294 20.34765625 11.5625 C22.45590495 11.60239259 24.55334167 11.59308549 26.66137695 11.54296875 C28.81591392 11.49993181 30.95719182 11.54268899 33.11132812 11.59375 C40.63892404 11.64867256 40.63892404 11.64867256 47.41259766 8.71875 C49.36802538 6.73956852 51.0297436 4.68034766 52.75 2.5 C58.68129365 -1.15002686 64.96121864 -1.45565846 71.75 -0.5 C77.33903701 1.61966719 81.10681835 5.10350413 83.75 10.5 C84 13.875 84 13.875 83.75 16.5 C83.19828125 16.34660156 82.6465625 16.19320312 82.078125 16.03515625 C79.54682617 15.45329729 77.08558028 15.17564555 74.5 14.9375 C73.60796875 14.85371094 72.7159375 14.76992187 71.796875 14.68359375 C70.78367187 14.59271484 70.78367187 14.59271484 69.75 14.5 C69.78049686 16.91857935 69.78049686 16.91857935 70.75 19.5 C73.41805853 21.21394154 73.41805853 21.21394154 76.75 22.4375 C87.52246076 27.06942241 95.59438407 32.5292894 101.6875 42.75 C102.75 45.5 102.75 45.5 102.75 49.5 C102.07122803 49.48952637 101.39245605 49.47905273 100.69311523 49.46826172 C87.85969286 49.29664253 75.41335694 49.21057954 62.75 51.5 C61.47511719 51.70625 60.20023438 51.9125 58.88671875 52.125 C49.65007789 53.67197349 40.80304663 56.0892918 31.86474609 58.85595703 C29.81832436 59.47919191 27.76591178 60.07173644 25.70703125 60.65234375 C17.31455008 63.02785975 9.05271993 65.70177186 0.8125 68.5625 C-0.13447754 68.89096924 -1.08145508 69.21943848 -2.05712891 69.55786133 C-10.15510323 72.40188583 -18.23127183 75.3189398 -25.875 79.25 C-26.71289062 79.67796875 -27.55078125 80.1059375 -28.4140625 80.546875 C-29.01992187 80.86140625 -29.62578125 81.1759375 -30.25 81.5 C-30.25 82.82 -30.25 84.14 -30.25 85.5 C-24.13252269 86.14928449 -19.44975823 83.81104866 -13.9375 81.5 C-2.44875492 76.83345291 9.21691613 73.00510296 21.05908203 69.34667969 C23.57828516 68.55402895 26.07856399 67.71941778 28.578125 66.8671875 C32.05959193 65.69629755 35.53131722 64.77601376 39.125 64 C43.26477006 63.07951562 47.35528445 62.08652531 51.4375 60.9375 C66.19014174 56.87147608 83.65369023 53.95124061 98.75 57.5 C97.41666667 60.16666667 96.08333333 62.83333333 94.75 65.5 C94.09 65.5 93.43 65.5 92.75 65.5 C92.50121094 66.05945313 92.25242187 66.61890625 91.99609375 67.1953125 C90.53798449 69.892129 88.78567626 72.02717002 86.8125 74.375 C83.06394531 78.89155126 79.38012356 83.45014981 75.75 88.0625 C75.26926025 88.67013184 74.78852051 89.27776367 74.29321289 89.90380859 C71.79118972 93.05072588 71.79118972 93.05072588 69.75 96.5 C69.09 96.5 68.43 96.5 67.75 96.5 C67.48388916 97.2230835 67.21777832 97.94616699 66.94360352 98.69116211 C65.74278253 101.51698446 64.33732399 103.87829256 62.65234375 106.44140625 C59.9079378 110.67979154 57.2340478 114.95224706 54.62890625 119.27734375 C54.10023453 120.15309555 54.10023453 120.15309555 53.56088257 121.04653931 C52.11574634 123.44171388 50.6725616 125.8380483 49.23217773 128.23608398 C42.61122306 139.25101312 35.71306944 150.03823062 28.0625 160.375 C27.61583984 160.98601562 27.16917969 161.59703125 26.70898438 162.2265625 C23.85385989 166.10522217 20.86629678 169.82782325 17.75 173.5 C16.25 172.125 16.25 172.125 14.75 170.5 C14.75 169.84 14.75 169.18 14.75 168.5 C14.09 168.5 13.43 168.5 12.75 168.5 C11.375 166.76953125 11.375 166.76953125 9.75 164.3125 C1.37570525 152.03595656 -7.89977002 139.58668451 -18.6015625 129.22265625 C-20.25 127.5 -20.25 127.5 -20.25 125.5 C-21.57 124.84 -22.89 124.18 -24.25 123.5 C-24.25 122.84 -24.25 122.18 -24.25 121.5 C-24.806875 121.273125 -25.36375 121.04625 -25.9375 120.8125 C-29.61466713 118.7254592 -32.23593989 115.57571157 -35.11328125 112.5234375 C-45.80206596 101.46337873 -58.71842643 92.92800806 -71.171875 83.99365234 C-75.54614696 80.84964437 -79.89714226 77.67355928 -84.25 74.5 C-82.67144812 69.9300487 -80.25505985 66.21911812 -77.5625 62.25 C-77.11841797 61.5912085 -76.67433594 60.93241699 -76.21679688 60.25366211 C-68.52352986 48.93162647 -68.52352986 48.93162647 -65.25 45.5 C-64.59 45.5 -63.93 45.5 -63.25 45.5 C-63.25 44.84 -63.25 44.18 -63.25 43.5 C-62.59 43.5 -61.93 43.5 -61.25 43.5 C-61.25 42.84 -61.25 42.18 -61.25 41.5 C-59.1594488 39.73779185 -57.05655501 38.08009905 -54.875 36.4375 C-53.58432846 35.43696803 -52.29527638 34.43434366 -51.0078125 33.4296875 C-50.0492334 32.68283691 -50.0492334 32.68283691 -49.07128906 31.92089844 C-41.45412588 25.97828588 -36.58117559 21.09921212 -32.53125 12.234375 C-29.73920738 6.27574746 -25.76567096 2.4385932 -19.91015625 -0.58203125 C-13.57421175 -2.76844382 -6.17066736 -2.74662439 0 0 Z " fill="#8EA749" transform="translate(228.25,109.5)"/>
<path d="M0 0 C3.27689139 3.72374021 4.71399906 7.96836028 6.375 12.5625 C6.67954102 13.40458008 6.98408203 14.24666016 7.29785156 15.11425781 C22.21000108 57.24774442 22.71719788 104.73877944 8 147 C7.39865234 148.74410156 7.39865234 148.74410156 6.78515625 150.5234375 C-4.21665625 180.52838067 -22.75010968 207.13350047 -46 229 C-46.66128906 229.63164062 -47.32257813 230.26328125 -48.00390625 230.9140625 C-49.875 232.625 -49.875 232.625 -53 235 C-53.99 234.67 -54.98 234.34 -56 234 C-56.02705308 231.58325776 -56.04686438 229.1668206 -56.0625 226.75 C-56.07506836 225.72712891 -56.07506836 225.72712891 -56.08789062 224.68359375 C-56.11333283 219.44250048 -56.11333283 219.44250048 -55.50439453 217.06494141 C-49.9902052 194.49039476 -58.12550736 165.52168648 -68.890625 145.734375 C-70 143 -70 143 -69.89453125 141.0390625 C-68.60713178 138.10446633 -67.05514304 135.39177107 -65.4375 132.625 C-65.07817383 132.00488037 -64.71884766 131.38476074 -64.34863281 130.74584961 C-62.61293613 127.75082539 -60.86221582 124.76465436 -59.11328125 121.77734375 C-53.76976456 112.55781705 -48.84770043 103.1383008 -43.94921875 93.67578125 C-41.82022177 89.56501609 -39.65584002 85.47592241 -37.4621582 81.39941406 C-29.77925522 67.09296189 -22.92339565 52.38092689 -16.50390625 37.46875 C-15.25213408 34.58154561 -13.95583174 31.72613782 -12.625 28.875 C-9.52537412 22.13487392 -6.80153034 15.23233737 -4.03369141 8.35107422 C-3.65647949 7.4179541 -3.27926758 6.48483398 -2.890625 5.5234375 C-2.55063477 4.67700684 -2.21064453 3.83057617 -1.86035156 2.95849609 C-1 1 -1 1 0 0 Z " fill="#F3CC5D" transform="translate(428,159)"/>
<path d="M0 0 C-1.33333333 2.66666667 -2.66666667 5.33333333 -4 8 C-4.66 8 -5.32 8 -6 8 C-6.24878906 8.55945313 -6.49757813 9.11890625 -6.75390625 9.6953125 C-8.21201551 12.392129 -9.96432374 14.52717002 -11.9375 16.875 C-15.68605469 21.39155126 -19.36987644 25.95014981 -23 30.5625 C-23.72110962 31.47394775 -23.72110962 31.47394775 -24.45678711 32.40380859 C-26.95881028 35.55072588 -26.95881028 35.55072588 -29 39 C-29.66 39 -30.32 39 -31 39 C-31.26611084 39.7230835 -31.53222168 40.44616699 -31.80639648 41.19116211 C-33.00721747 44.01698446 -34.41267601 46.37829256 -36.09765625 48.94140625 C-38.8420622 53.17979154 -41.5159522 57.45224706 -44.12109375 61.77734375 C-44.47354156 62.36117828 -44.82598938 62.94501282 -45.18911743 63.54653931 C-46.63425366 65.94171388 -48.0774384 68.3380483 -49.51782227 70.73608398 C-56.13877694 81.75101312 -63.03693056 92.53823062 -70.6875 102.875 C-71.13416016 103.48601562 -71.58082031 104.09703125 -72.04101562 104.7265625 C-74.89614011 108.60522217 -77.88370322 112.32782325 -81 116 C-82.5 114.625 -82.5 114.625 -84 113 C-84 112.34 -84 111.68 -84 111 C-84.66 111 -85.32 111 -86 111 C-87.375 109.26953125 -87.375 109.26953125 -89 106.8125 C-97.37429475 94.53595656 -106.64977002 82.08668451 -117.3515625 71.72265625 C-119 70 -119 70 -119 68 C-120.32 67.34 -121.64 66.68 -123 66 C-123 65.34 -123 64.68 -123 64 C-123.556875 63.773125 -124.11375 63.54625 -124.6875 63.3125 C-127.66504189 61.62254379 -129.63624916 59.4763104 -132 57 C-132.556875 56.53335938 -133.11375 56.06671875 -133.6875 55.5859375 C-136.66075572 53.01186889 -137.91822749 51.83407956 -138.3125 47.8125 C-136.49267401 40.46761674 -131.2416499 33.13098671 -125 29 C-121.31763458 27.23992158 -117.54957779 25.73708215 -113.75 24.25 C-112.65623047 23.81679443 -111.56246094 23.38358887 -110.43554688 22.93725586 C-99.66375218 18.7425 -88.70712912 15.21517035 -77.65869141 11.83056641 C-75.15168278 11.0473852 -72.665493 10.2187998 -70.1796875 9.37109375 C-66.69553903 8.19840888 -63.22176063 7.27667839 -59.625 6.5 C-55.48522994 5.57951562 -51.39471555 4.58652531 -47.3125 3.4375 C-32.55985826 -0.62852392 -15.09630977 -3.54875939 0 0 Z " fill="#F2DA86" transform="translate(327,167)"/>
<path d="M0 0 C6.1630809 9.24462135 6.43702834 20.29673591 5 31 C3.17793561 39.7136821 0.59160162 48.22636411 -2.00878906 56.73388672 C-2.84290263 59.48235257 -3.63762274 62.23451736 -4.3984375 65.00390625 C-7.03002877 74.52996515 -10.4571306 83.63817335 -14.13134766 92.80664062 C-15.51110002 96.29053474 -16.8187266 99.80053793 -18.125 103.3125 C-18.61701993 104.62766687 -19.10920385 105.9427724 -19.6015625 107.2578125 C-20.49459228 109.64754023 -21.38543948 112.03808546 -22.2734375 114.4296875 C-24.26485557 119.71899538 -26.36889932 124.90805832 -28.7578125 130.03125 C-29.54816895 131.73124146 -29.54816895 131.73124146 -30.35449219 133.46557617 C-30.89750977 134.63193604 -31.44052734 135.7982959 -32 137 C-33.05020176 139.27701061 -34.09968094 141.55435464 -35.1484375 143.83203125 C-42.62733744 160.02982632 -50.31372189 176.04504947 -58.71582031 191.78564453 C-61.05505131 196.17649615 -63.3055258 200.59753055 -65.5 205.0625 C-72.84445014 219.83543289 -81.4604219 233.89741417 -90 248 C-96.435 244.535 -96.435 244.535 -103 241 C-101.42011132 236.26033395 -100.16872727 233.37084559 -97.5625 229.3125 C-86.66255699 212.03894799 -76.95380417 194.12061286 -67.90185547 175.81982422 C-66.63118051 173.25577139 -65.35059099 170.69671878 -64.06982422 168.13769531 C-63.39775355 166.79485707 -62.72620478 165.45175751 -62.05517578 164.10839844 C-60.35161682 160.69799338 -58.64325264 157.29014088 -56.92578125 153.88671875 C-51.2015687 142.52917569 -45.74777894 131.17814888 -41.28515625 119.25390625 C-39.96404718 115.90897052 -38.48183783 112.68486701 -36.9375 109.4375 C-34.53410424 104.34254623 -32.68930485 99.25157317 -30.9921875 93.88671875 C-30.01480005 91.04305999 -28.85334771 88.40148727 -27.5625 85.6875 C-24.93719993 80.12186385 -23.06731786 74.43382144 -21.2109375 68.578125 C-20 65 -20 65 -18.49609375 61.52734375 C-16.93653705 57.85037325 -15.76822452 54.14836254 -14.6875 50.3125 C-14.25325141 48.80319904 -13.81832749 47.29409227 -13.3828125 45.78515625 C-13.04491699 44.60977295 -13.04491699 44.60977295 -12.70019531 43.41064453 C-11.51997599 39.34736502 -10.28771953 35.29988716 -9.0625 31.25 C-5.93129943 20.86480032 -2.95265996 10.43716242 0 0 Z " fill="#B1B6BA" transform="translate(439,54)"/>
<path d="M0 0 C0.309375 1.20849609 0.309375 1.20849609 0.625 2.44140625 C1.305625 3.70791016 1.305625 3.70791016 2 5 C4.75978872 5.82599302 4.75978872 5.82599302 8 5.9375 C14.68900428 6.72356924 19.84081828 8.58780405 25 13 C28.08221004 17.39164568 28.08221004 17.39164568 27.6875 20.3125 C27 22 27 22 25.375 22.75 C21.66289506 23.14074789 19.81892843 21.24232943 17 19 C17 18.34 17 17.68 17 17 C15.02 17 13.04 17 11 17 C11 18.65 11 20.3 11 22 C11.66 22 12.32 22 13 22 C14.69140625 23.609375 14.69140625 23.609375 16.5625 25.75 C17.49255859 26.79414063 17.49255859 26.79414063 18.44140625 27.859375 C20.00315676 30.00433559 20.77286113 31.36297317 21 34 C20.01 34.99 20.01 34.99 19 36 C15.72097122 35.88289183 14.53739716 34.60486007 12 32.4375 C9.12682592 29.57960492 9.12682592 29.57960492 5 30 C5.31594557 33.68603165 5.84953788 34.85320769 8.5625 37.5 C11 40 11 40 11.3125 42.8125 C11.209375 43.534375 11.10625 44.25625 11 45 C8.6875 45.6875 8.6875 45.6875 6 46 C4.375 44.625 4.375 44.625 3 43 C-1.55757973 41.48080676 -6.28676799 42.07014856 -11.04492188 42.30273438 C-16.3270204 42.42168071 -19.66813051 41.48497114 -24.26879883 38.91040039 C-29.69898925 36.0547834 -37.05558823 38.15026894 -42.8125 39.01171875 C-52.93916965 40.37510294 -63.07537039 40.26578318 -73.27539062 40.20581055 C-76.52221431 40.18737386 -79.76875399 40.18530282 -83.015625 40.18554688 C-85.10416911 40.18063616 -87.19271132 40.1748098 -89.28125 40.16796875 C-90.23970825 40.16685593 -91.1981665 40.1657431 -92.18566895 40.16459656 C-97.54490395 40.12697216 -102.6964065 39.77959714 -108 39 C-106.07683403 32.54839396 -102.72072707 27.54901537 -99 22 C-98.505 21.25234375 -98.01 20.5046875 -97.5 19.734375 C-96.39319892 18.11370199 -95.20488714 16.5491406 -94 15 C-93.34 15 -92.68 15 -92 15 C-91.731875 14.38125 -91.46375 13.7625 -91.1875 13.125 C-90 11 -90 11 -87 9 C-82.85454786 8.51555651 -80.16245197 9.6214852 -76.4375 11.375 C-61.70561585 17.70917187 -40.99297417 18.75164673 -25.9140625 12.77734375 C-19.73929984 9.8010764 -13.97981486 6.21124249 -8.27734375 2.41796875 C-5.376325 0.61167406 -3.42810614 0 0 0 Z " fill="#8EA748" transform="translate(310,316)"/>
<path d="M0 0 C1.32 0.33 2.64 0.66 4 1 C4 1.99 4 2.98 4 4 C4.66 4 5.32 4 6 4 C13.24376868 16.68464383 20.16467152 29.27248212 25.37744141 42.95092773 C26.81608186 46.60707667 28.38291842 49.71099924 30.71484375 52.88671875 C33 56 33 56 33 58 C33.66 58 34.32 58 35 58 C36.625 60 36.625 60 38 62 C36.66666667 64.66666667 35.33333333 67.33333333 34 70 C30.92887158 69.48814526 27.90419183 68.97700604 24.875 68.25 C22.03106247 67.79718033 22.03106247 67.79718033 19.625 68.875 C17.36320728 71.83272894 17.51485521 74.14616147 17.65625 77.79296875 C18.10260655 80.65878071 19.48265905 82.55906021 21 85 C20.6875 88.3125 20.6875 88.3125 20 91 C15 91 10 91 5 91 C5.38671875 90.030625 5.7734375 89.06125 6.171875 88.0625 C8.97284545 80.90516489 11.50448798 73.77357039 13.375 66.3125 C13.54225586 65.65443359 13.70951172 64.99636719 13.88183594 64.31835938 C14.72262184 60.81418072 15.17909826 57.60263033 15 54 C13.02 53.34 11.04 52.68 9 52 C8.85304688 52.95777344 8.70609375 53.91554688 8.5546875 54.90234375 C6.83320636 65.40057845 4.07081214 75.16981014 0 85 C-0.29003906 85.70705078 -0.58007812 86.41410156 -0.87890625 87.14257812 C-5.72222242 98.5379995 -5.72222242 98.5379995 -10.78125 101.78515625 C-13.54448903 102.82137088 -16.09520348 103.50501225 -19 104 C-20.14299561 104.25716797 -20.14299561 104.25716797 -21.30908203 104.51953125 C-24.15070269 105.02690826 -26.78269791 105.12944551 -29.66796875 105.1328125 C-30.72564453 105.13410156 -31.78332031 105.13539063 -32.87304688 105.13671875 C-33.96681641 105.13285156 -35.06058594 105.12898438 -36.1875 105.125 C-37.29287109 105.12886719 -38.39824219 105.13273437 -39.53710938 105.13671875 C-40.59091797 105.13542969 -41.64472656 105.13414062 -42.73046875 105.1328125 C-43.69364014 105.13168457 -44.65681152 105.13055664 -45.64916992 105.12939453 C-48 105 -48 105 -50 104 C-49.67 103.01 -49.34 102.02 -49 101 C-48.34 101 -47.68 101 -47 101 C-46.74089844 100.40832031 -46.48179687 99.81664062 -46.21484375 99.20703125 C-44.9078467 96.83258322 -43.56610827 95.499495 -41.5625 93.6875 C-20.77408767 73.35100968 -5.90609345 43.2311806 -4.625 14.25 C-4.30517959 8.33030532 -3.56973081 4.72125688 0 0 Z " fill="#22464E" transform="translate(296,220)"/>
<path d="M0 0 C7.28180622 -0.58724244 13.03865199 0.50533285 19 5 C20.046875 6.7734375 20.046875 6.7734375 20 9 C18.66487102 11.28626069 17.33829284 13.27980519 15.75 15.375 C10.32822348 22.69525347 7.67240526 28.59322703 6.625 37.6875 C4.51213299 53.25308893 4.51213299 53.25308893 0 59 C-3.49066125 61.3088914 -6.80256326 62 -11 62 C-10.69128878 60.20767663 -10.37790936 58.41615679 -10.0625 56.625 C-9.88847656 55.62726563 -9.71445312 54.62953125 -9.53515625 53.6015625 C-9 51 -9 51 -8 49 C-7.960008 47.00039988 -7.95653201 44.99952758 -8 43 C-9.32 42.67 -10.64 42.34 -12 42 C-12.59167969 42.74765625 -13.18335938 43.4953125 -13.79296875 44.265625 C-14.58316406 45.25046875 -15.37335938 46.2353125 -16.1875 47.25 C-17.35345703 48.71179688 -17.35345703 48.71179688 -18.54296875 50.203125 C-22.5276347 54.73892916 -27.35745402 58.70957964 -33 61 C-36.9375 61.25 -36.9375 61.25 -40 61 C-38.95185292 57.73909798 -38.02292412 57.01216382 -34.9375 55.375 C-27.02634813 51.17116616 -21.2461414 43.18592178 -18 35 C-18 33.68 -18 32.36 -18 31 C-20.0836309 31.14151828 -22.16689938 31.28837936 -24.25 31.4375 C-25.41015625 31.51871094 -26.5703125 31.59992188 -27.765625 31.68359375 C-30.30977376 31.93247787 -32.55953248 32.28114942 -35 33 C-34.11787714 31.55404603 -33.21860281 30.11854902 -32.3125 28.6875 C-31.81363281 27.88699219 -31.31476563 27.08648437 -30.80078125 26.26171875 C-28.30196393 23.12329092 -26.05096908 21.33232481 -22.0065918 20.67700195 C-19.7310347 20.48300111 -17.47022835 20.37947024 -15.1875 20.3125 C-14.00510742 20.26125977 -14.00510742 20.26125977 -12.79882812 20.20898438 C-10.86636881 20.12700125 -8.93320965 20.06181155 -7 20 C-6.773125 18.741875 -6.54625 17.48375 -6.3125 16.1875 C-5.05238546 10.41120854 -2.58898683 5.28667158 0 0 Z " fill="#8DA549" transform="translate(328,364)"/>
<path d="M0 0 C3.465 1.98 3.465 1.98 7 4 C7 4.66 7 5.32 7 6 C7.72316406 6.26941406 8.44632813 6.53882813 9.19140625 6.81640625 C11.96634291 7.98581627 14.38188518 9.35083867 16.9375 10.9375 C19.63605059 12.60966051 22.12146184 14.04929558 25.0703125 15.24609375 C28.8343413 17.49949233 30.15425929 20.28071542 31.9375 24.125 C34.70711359 29.73103804 37.66753109 34.579138 41.75 39.36328125 C43 41 43 41 43 43 C43.66 43 44.32 43 45 43 C46.37073786 44.63604196 47.70055256 46.30678061 49 48 C51.12399867 50.37887851 51.86597409 50.9553247 55 52 C55.680625 52.721875 56.36125 53.44375 57.0625 54.1875 C61.13190343 58.35466688 66.31211883 62.44123013 72.19140625 63.33203125 C84.18261925 62.51495044 95.27528585 55.44790829 105 49 C105.70125 48.5565625 106.4025 48.113125 107.125 47.65625 C111.28057874 44.91059976 114.18942901 41.61274089 117.2265625 37.671875 C119.41446497 35.60927091 121.05704491 35.34150332 124 35 C120.58997701 41.57022744 116.94208746 47.75937895 112.60546875 53.76171875 C111.22823467 55.68180422 109.94633788 57.62677036 108.6875 59.625 C108.130625 60.40875 107.57375 61.1925 107 62 C106.34 62 105.68 62 105 62 C104.74605469 62.55042969 104.49210937 63.10085938 104.23046875 63.66796875 C102.78832333 66.40117769 101.14578642 68.82369662 99.3125 71.3125 C98.66925781 72.21613281 98.02601563 73.11976563 97.36328125 74.05078125 C95 76 95 76 91.6953125 75.9765625 C87.82864797 74.95471669 84.20583125 73.69043946 80.5625 72.0625 C79.87365723 71.75675049 79.18481445 71.45100098 78.47509766 71.13598633 C65.35602039 65.11252804 53.56507289 56.55557437 42 48 C41.05253906 47.30261719 40.10507813 46.60523438 39.12890625 45.88671875 C34.51106066 42.40712527 34.51106066 42.40712527 33 41 C33 40.34 33 39.68 33 39 C32.34 39 31.68 39 31 39 C31 38.34 31 37.68 31 37 C30.38125 36.7525 29.7625 36.505 29.125 36.25 C26.59641373 34.76259631 26.28160996 33.56321991 25 31 C24.38898438 30.70480469 23.77796875 30.40960938 23.1484375 30.10546875 C20.67032503 28.83036724 19.40791672 27.44279251 17.625 25.3125 C17.01785156 24.59320313 16.41070312 23.87390625 15.78515625 23.1328125 C15.19605469 22.42898438 14.60695313 21.72515625 14 21 C13.25556641 20.16082031 13.25556641 20.16082031 12.49609375 19.3046875 C0 5.20827657 0 5.20827657 0 0 Z " fill="#23444B" transform="translate(87,349)"/>
<path d="M0 0 C0.66 0 1.32 0 2 0 C2 0.66 2 1.32 2 2 C3.41543415 2.19658808 4.83244031 2.38187546 6.25 2.5625 C7.03890625 2.66691406 7.8278125 2.77132813 8.640625 2.87890625 C11.00532874 3.00027349 12.7511037 2.69633257 15 2 C20.94791978 21.51841638 23.80028734 42.65058838 20 63 C19.01 63.99 19.01 63.99 18 65 C15.33333333 58.33333333 12.66666667 51.66666667 10 45 C9.34 45 8.68 45 8 45 C7.41347656 44.38511719 6.82695312 43.77023437 6.22265625 43.13671875 C3.70637252 40.71772543 1.72816447 39.90938816 -1.5625 38.8125 C-2.51253906 38.48894531 -3.46257812 38.16539062 -4.44140625 37.83203125 C-5.28574219 37.55746094 -6.13007813 37.28289062 -7 37 C-7.99 36.67 -8.98 36.34 -10 36 C-9.690625 35.319375 -9.38125 34.63875 -9.0625 33.9375 C-7.86629351 30.63034088 -7.40994603 27.48454122 -7 24 C-6.21625 23.87625 -5.4325 23.7525 -4.625 23.625 C-1.85909002 22.27041336 -1.85909002 22.27041336 -1.1171875 19.81640625 C0.19559466 14.34230541 0.19559466 14.34230541 -1.4375 9.125 C-1.953125 8.42375 -2.46875 7.7225 -3 7 C-2.72688465 3.90469271 -1.7770843 2.66562645 0 0 Z " fill="#22474F" transform="translate(345,321)"/>
<path d="M0 0 C1.72181803 2.58272704 3.14801538 5.17944402 4.56176758 7.9362793 C15.10936672 28.7849933 15.10936672 28.7849933 32 44 C32 44.66 32 45.32 32 46 C14.54532572 46.55676792 -1.85640241 45.34422448 -19 42 C-17.35157761 38.65312179 -15.52908427 35.45950449 -13.625 32.25 C-12.4150583 30.16760035 -11.20658412 28.0843469 -10 26 C-9.41992188 25.02740234 -9.41992188 25.02740234 -8.828125 24.03515625 C-5.82568248 18.60861055 -4.31701248 12.66872242 -2.66162109 6.72583008 C-1.09020232 1.09020232 -1.09020232 1.09020232 0 0 Z " fill="#21454D" transform="translate(229,393)"/>
<path d="M0 0 C5.01791684 2.41935276 8.49958655 5.9991731 11 11 C11.51848559 16.20185538 11.62018013 20.63560371 9.4375 25.4375 C5.27703951 29.81131744 -0.00233573 33.09766678 -6.125 33.375 C-11.50247118 33.30572501 -14.95144958 31.43624144 -19 28 C-22.54454416 24.27822864 -23.26980001 21.43495978 -23.4375 16.4375 C-23.21986642 11.24939624 -22.40456598 8.24426158 -18.53515625 4.6328125 C-12.52198668 -0.57174013 -7.79368787 -0.73448367 0 0 Z " fill="#020401" transform="translate(224,118)"/>
<path d="M0 0 C1.66857236 0.32365904 3.33471558 0.65982842 5 1 C7.6068127 1.21881019 10.20220189 1.41012853 12.8125 1.5625 C13.85180664 1.62727539 13.85180664 1.62727539 14.91210938 1.69335938 C16.60788686 1.79861453 18.30392052 1.89972863 20 2 C17.98142227 6.26495734 15.70624444 10.05568524 12.9375 13.875 C12.24527344 14.84179688 11.55304688 15.80859375 10.83984375 16.8046875 C9.92912109 17.89136719 9.92912109 17.89136719 9 19 C8.34 19 7.68 19 7 19 C6.79890625 19.66386719 6.5978125 20.32773437 6.390625 21.01171875 C4.46267104 25.15465353 1.67831087 28.330627 -1.25 31.8125 C-2.38174715 33.17189744 -3.51195983 34.53257386 -4.640625 35.89453125 C-5.48077148 36.89734131 -5.48077148 36.89734131 -6.33789062 37.92041016 C-8.54121408 40.67715358 -10.50330863 43.58645297 -12.43652344 46.5378418 C-14 48 -14 48 -16.47753906 48.32348633 C-20.15641649 47.85169843 -22.18809814 46.36455383 -25 44 C-25.84375 41.62109375 -25.84375 41.62109375 -26 39 C-24.953125 36.921875 -24.953125 36.921875 -23.25 34.75 C-19.79852682 30.13192888 -16.61181803 25.41211425 -13.5 20.5625 C-13.02868652 19.8312793 -12.55737305 19.10005859 -12.07177734 18.34667969 C-8.76890522 13.21651618 -5.49270749 8.06975543 -2.2421875 2.90625 C-1 1 -1 1 0 0 Z " fill="#2D281B" transform="translate(286,363)"/>
<path d="M0 0 C2.594062 5.188124 -2.36590961 14.99405541 -4.05126953 20.27050781 C-6.34417863 26.86719432 -9.54360343 32.94925351 -13 39 C-13.32758301 39.58217285 -13.65516602 40.1643457 -13.99267578 40.76416016 C-18.09050973 47.97365277 -22.74335924 54.44777723 -28.1171875 60.7578125 C-30.115754 63.05417284 -30.115754 63.05417284 -32 66 C-32.66 66 -33.32 66 -34 66 C-34.36544922 66.84111328 -34.36544922 66.84111328 -34.73828125 67.69921875 C-37.23264165 72.24775831 -40.889955 75.87528598 -45 79 C-49.92414707 79.32827647 -53.00181228 77.78661568 -57 75 C-56.62488281 74.56429687 -56.24976563 74.12859375 -55.86328125 73.6796875 C-55.09564453 72.78636719 -55.09564453 72.78636719 -54.3125 71.875 C-53.76722656 71.24207031 -53.22195312 70.60914063 -52.66015625 69.95703125 C-51.1557467 68.18359787 -49.70207646 66.37867921 -48.25 64.5625 C-47.13625 63.2940625 -47.13625 63.2940625 -46 62 C-45.34 62 -44.68 62 -44 62 C-44 61.34 -44 60.68 -44 60 C-43.34 60 -42.68 60 -42 60 C-41.7525 59.43152344 -41.505 58.86304688 -41.25 58.27734375 C-39.79904407 55.63388341 -38.0705707 53.75508647 -36 51.5625 C-23.37965969 37.75079957 -13.2920325 22.11752491 -3.8125 6.046875 C-2.59428743 3.99901767 -1.32174261 1.98261392 0 0 Z " fill="#B7A92D" transform="translate(283,242)"/>
<path d="M0 0 C-3.31400966 9.38969404 -3.31400966 9.38969404 -7.62890625 11.9765625 C-23.32595189 18.05878371 -47.85219745 18.67037117 -64 15 C-63.65066406 14.46890625 -63.30132812 13.9378125 -62.94140625 13.390625 C-62.48636719 12.68421875 -62.03132812 11.9778125 -61.5625 11.25 C-61.11003906 10.55390625 -60.65757812 9.8578125 -60.19140625 9.140625 C-59.03232636 7.05808145 -58.52566213 5.30531346 -58 3 C-57.09983154 2.98018066 -56.19966309 2.96036133 -55.2722168 2.93994141 C-32.37661873 2.46133639 -32.37661873 2.46133639 -9.58203125 0.40234375 C-6.3475721 0.03904027 -3.25039246 -0.07582564 0 0 Z " fill="#74451C" transform="translate(278,361)"/>
<path d="M0 0 C3.34566008 1.39883202 4.94288714 2.91231028 7 5.875 C8.70850066 8.26863544 10.28503587 10.28503587 12.375 12.375 C12.91125 12.91125 13.4475 13.4475 14 14 C14 14.66 14 15.32 14 16 C14.66 16 15.32 16 16 16 C16.226875 17.051875 16.45375 18.10375 16.6875 19.1875 C17.85801227 23.22739306 19.76023349 25.26419717 23 28 C23.52851563 28.45632813 24.05703125 28.91265625 24.6015625 29.3828125 C28.15535231 32.22259888 31.42535734 33.97712064 36.0078125 34.3515625 C39.33246831 33.76485853 41.24989926 31.70068424 43.5546875 29.34765625 C45 28 45 28 47 28 C47.625 30.8125 47.625 30.8125 48 34 C47.34 34.99 46.68 35.98 46 37 C45.97360171 39.29714187 45.97360171 39.29714187 46.375 41.6875 C46.48585938 42.49574219 46.59671875 43.30398438 46.7109375 44.13671875 C46.80632812 44.75160156 46.90171875 45.36648438 47 46 C47.68707031 46.06058594 48.37414062 46.12117188 49.08203125 46.18359375 C49.98308594 46.26738281 50.88414062 46.35117187 51.8125 46.4375 C52.70582031 46.51871094 53.59914063 46.59992188 54.51953125 46.68359375 C57 47 57 47 60 48 C58.35338795 48.48026185 56.7059005 48.95767857 55.0546875 49.421875 C53.72346148 49.7964405 52.39505517 50.18123853 51.0703125 50.578125 C45.6266596 52.10846919 39.47666835 53.51345727 34.09765625 51.171875 C32.4375 50.125 32.4375 50.125 30 48 C30 47.34 30 46.68 30 46 C29.34 46 28.68 46 28 46 C21.90831608 40.26267996 16.69005022 32.91277243 12 26 C12 25.34 12 24.68 12 24 C11.34 24 10.68 24 10 24 C8.705826 21.43873936 7.41459216 18.87606642 6.125 16.3125 C5.76019531 15.59126953 5.39539063 14.87003906 5.01953125 14.12695312 C0 4.13352273 0 4.13352273 0 0 Z " fill="#72441D" transform="translate(235,385)"/>
<path d="M0 0 C1.32 0 2.64 0 4 0 C3.4271804 16.03894891 -5.79982612 35.49903156 -17 47 C-21.8632674 47 -25.58216546 46.07085994 -30 44 C-28.66302472 41.14098455 -27.14673025 38.72865371 -25.20703125 36.2421875 C-24.66264404 35.53932617 -24.11825684 34.83646484 -23.55737305 34.11230469 C-22.69366089 33.00483887 -22.69366089 33.00483887 -21.8125 31.875 C-13.39250623 21.02844814 -13.39250623 21.02844814 -5.9453125 9.5078125 C-5.59057861 8.90614258 -5.23584473 8.30447266 -4.87036133 7.68457031 C-3.86357465 5.96236794 -2.87844333 4.22755993 -1.89453125 2.4921875 C-0.95673828 1.25855469 -0.95673828 1.25855469 0 0 Z " fill="#73441C" transform="translate(219,385)"/>
<path d="M0 0 C3.125 0.375 3.125 0.375 6 1 C5.979375 1.78503906 5.95875 2.57007812 5.9375 3.37890625 C5.96723796 9.73571736 5.96723796 9.73571736 8.7421875 15.25 C10.75994848 16.96472728 12.83057131 18.48477646 15 20 C16.76953125 21.5703125 16.76953125 21.5703125 18 23 C17.8125 24.8125 17.8125 24.8125 17 27 C16.4740625 28.60875 16.4740625 28.60875 15.9375 30.25 C15.628125 31.1575 15.31875 32.065 15 33 C14.525625 32.34 14.05125 31.68 13.5625 31 C7.32201417 23.69406537 0.72139269 18.92113815 -8 15 C-9.54515675 14.2361867 -11.0871492 13.46591831 -12.625 12.6875 C-13.73875 12.130625 -14.8525 11.57375 -16 11 C-16 9.35 -16 7.7 -16 6 C-10.34264585 4.44422761 -7.20333134 5.75718477 -2 8 C-2.04125 7.05125 -2.0825 6.1025 -2.125 5.125 C-2 2 -2 2 0 0 Z " fill="#080903" transform="translate(314,118)"/>
<path d="M0 0 C6.93 0.495 6.93 0.495 14 1 C13.01027241 4.95891035 11.87314286 6.96417939 9.5625 10.25 C8.94503906 11.14203125 8.32757813 12.0340625 7.69140625 12.953125 C7.13324219 13.62859375 6.57507813 14.3040625 6 15 C5.34 15 4.68 15 4 15 C3.61328125 15.87398438 3.61328125 15.87398438 3.21875 16.765625 C1.90165983 19.1802903 0.44911616 20.81740177 -1.5 22.75 C-2.41265625 23.67039062 -2.41265625 23.67039062 -3.34375 24.609375 C-5 26 -5 26 -7 26 C-7 26.66 -7 27.32 -7 28 C-9.046875 29.69140625 -9.046875 29.69140625 -11.75 31.5625 C-13.07257813 32.49255859 -13.07257813 32.49255859 -14.421875 33.44140625 C-16.71323511 34.82663759 -18.38943105 35.55473941 -21 36 C-20.63648438 35.46632813 -20.27296875 34.93265625 -19.8984375 34.3828125 C-13.72396666 25.23193007 -8.34792929 15.9188369 -3.515625 6.00390625 C-2 3 -2 3 0 0 Z " fill="#23444C" transform="translate(198,362)"/>
<path d="M0 0 C0.71929687 0.76570313 1.43859375 1.53140625 2.1796875 2.3203125 C4.7814669 4.79236328 7.00457653 6.18596344 10.125 7.875 C14.88883986 11.09801331 15.91400207 13.77707251 17 19.375 C17.35546369 21.91366621 17.69033257 24.45534155 18 27 C18.3702677 28.81789497 18.76114643 30.63193557 19.1875 32.4375 C19.455625 33.613125 19.72375 34.78875 20 36 C18.33058072 34.96275052 16.66463048 33.9199175 15 32.875 C14.071875 32.29492188 13.14375 31.71484375 12.1875 31.1171875 C11.135625 30.41851562 10.08375 29.71984375 9 29 C8.29875 28.61602051 7.5975 28.23204102 6.875 27.83642578 C3.46863645 25.75535055 1.36360129 24.31222152 0.26953125 20.36376953 C-0.01131156 17.25770905 -0.05759551 14.24283679 0 11.125 C-0.01160156 10.05507813 -0.02320312 8.98515625 -0.03515625 7.8828125 C-0.05863444 5.25325483 -0.04584549 2.6291113 0 0 Z " fill="#72441C" transform="translate(90,320)"/>
<path d="M0 0 C2.59275368 5.18550736 -2.3625893 14.99112315 -4.046875 20.26611328 C-6.34322111 26.85281506 -9.56888073 32.94421409 -13 39 C-13.34305176 39.60827637 -13.68610352 40.21655273 -14.03955078 40.84326172 C-15.97806709 44.25847947 -17.9646568 47.64168372 -20 51 C-22 48 -22 48 -21.625 45.8125 C-21.41875 45.214375 -21.2125 44.61625 -21 44 C-20.34 44 -19.68 44 -19 44 C-17.69140351 42.30287793 -17.69140351 42.30287793 -17 40 C-18.28184562 37.25167846 -18.28184562 37.25167846 -20 35 C-20.99 35.495 -20.99 35.495 -22 36 C-20.71879578 32.48284803 -19.2206918 29.69290741 -17 26.6875 C-13.73087856 22.12721295 -10.71181701 17.44996713 -7.75 12.6875 C-7.32589844 12.00582764 -6.90179688 11.32415527 -6.46484375 10.62182617 C-4.28080338 7.09832771 -2.12173982 3.56149184 0 0 Z " fill="#B4A634" transform="translate(283,242)"/>
<path d="M0 0 C1.89213369 2.38573379 3.02391783 4.07175348 4 7 C3.34 7 2.68 7 2 7 C1.67 8.32 1.34 9.64 1 11 C0.34 11 -0.32 11 -1 11 C-1 12.98 -1 14.96 -1 17 C-1.33 16.34 -1.66 15.68 -2 15 C-2.99 15.495 -2.99 15.495 -4 16 C-4 16.66 -4 17.32 -4 18 C-4.99 18.33 -5.98 18.66 -7 19 C-7.33 20.65 -7.66 22.3 -8 24 C-8.66 24 -9.32 24 -10 24 C-10.33 24.66 -10.66 25.32 -11 26 C-11.66 25.67 -12.32 25.34 -13 25 C-13.33 25.99 -13.66 26.98 -14 28 C-14.99 28 -15.98 28 -17 28 C-17.8125 26.375 -17.8125 26.375 -18 24 C-16.82856133 22.47062174 -15.64307399 20.94609579 -14.33984375 19.52734375 C-12.80501046 17.87435841 -12.80501046 17.87435841 -11.3125 15.125 C-10.6628125 14.073125 -10.6628125 14.073125 -10 13 C-9.34 13 -8.68 13 -8 13 C-8.22171875 12.41476562 -8.4434375 11.82953125 -8.671875 11.2265625 C-9 9 -9 9 -7.890625 7.1484375 C-7.34921875 6.56320312 -6.8078125 5.97796875 -6.25 5.375 C-5.71890625 4.78460938 -5.1878125 4.19421875 -4.640625 3.5859375 C-3 2 -3 2 0 0 Z " fill="#BBAC27" transform="translate(263,276)"/>
<path d="M0 0 C3 1 3 1 4.0625 3.07421875 C4.371875 3.93660156 4.68125 4.79898437 5 5.6875 C6.13657414 8.74313585 7.28770999 11.57541997 8.75 14.5 C10 17 10 17 10 19 C3.93267948 17.96232949 -1.4373852 16.66038099 -7 14 C-6.44010697 10.00987629 -5.24330232 7.4744948 -2.9375 4.1875 C-2.38964844 3.39730469 -1.84179688 2.60710937 -1.27734375 1.79296875 C-0.64505859 0.90544922 -0.64505859 0.90544922 0 0 Z " fill="#23434A" transform="translate(351,380)"/>
<path d="M0 0 C4.85416592 0.57988109 8.41891579 2.70662926 12.5625 5.125 C13.26270264 5.52662354 13.96290527 5.92824707 14.68432617 6.34204102 C16.79365797 7.55440835 18.89718597 8.77637111 21 10 C22.20292434 10.69435816 23.40603545 11.38839291 24.609375 12.08203125 C32.34156977 16.56104651 32.34156977 16.56104651 36 19 C36 19.99 36 20.98 36 22 C31.99624824 21.29286971 28.65177405 19.36045315 25.125 17.4375 C24.47241211 17.0854248 23.81982422 16.73334961 23.14746094 16.37060547 C6.57147606 7.38098404 6.57147606 7.38098404 0 3 C0 2.01 0 1.02 0 0 Z " fill="#363530" transform="translate(319,295)"/>
<path d="M0 0 C5.48821566 1.03831107 10.74565027 2.06418694 16 4 C16 4.66 16 5.32 16 6 C13.96246024 7.43194595 11.94713033 8.72889327 9.8125 10 C8.9452832 10.53367187 8.9452832 10.53367187 8.06054688 11.078125 C4.74047755 13.08892405 1.63603253 14.54558699 -2 16 C-1.34 10.72 -0.68 5.44 0 0 Z " fill="#25454B" transform="translate(341,401)"/>
<path d="M0 0 C0.66 0 1.32 0 2 0 C2.07421454 3.93260944 2.12863136 7.86494722 2.16479492 11.7980957 C2.18728333 13.79327701 2.22540198 15.78826213 2.26367188 17.78320312 C2.27333984 19.03681641 2.28300781 20.29042969 2.29296875 21.58203125 C2.31653442 23.31803589 2.31653442 23.31803589 2.34057617 25.08911133 C2 28 2 28 0.51367188 29.43164062 C-1.9486174 31.98289003 -1.48128302 35.14731103 -1.51171875 38.51171875 C-1.53864555 39.60405571 -1.53864555 39.60405571 -1.56611633 40.71846008 C-1.62024213 43.04141471 -1.6541208 45.36416366 -1.6875 47.6875 C-1.72067125 49.26370051 -1.75516073 50.83987388 -1.79101562 52.41601562 C-1.8759693 56.27719536 -1.94276876 60.13831387 -2 64 C-4.55234718 61.54774487 -6.31418658 59.13079636 -8 56 C-8 55.34 -8 54.68 -8 54 C-6.68 54 -5.36 54 -4 54 C-3.67 45.42 -3.34 36.84 -3 28 C-2.34 27.67 -1.68 27.34 -1 27 C-0.67 18.09 -0.34 9.18 0 0 Z " fill="#CFB96A" transform="translate(85,280)"/>
<path d="M0 0 C-2.33646103 4.33914191 -4.40022492 7.58172618 -8 11 C-9.33629746 9.52351062 -10.66896671 8.0437367 -12 6.5625 C-12.7425 5.73878906 -13.485 4.91507812 -14.25 4.06640625 C-16 2 -16 2 -16 1 C-10.61509359 0.08342019 -5.45769811 -0.11138159 0 0 Z " fill="#24454B" transform="translate(263,384)"/>
<path d="M0 0 C4.14298667 0.59834725 7.18194377 2.00664285 10.8125 4.0625 C11.78832031 4.61035156 12.76414062 5.15820312 13.76953125 5.72265625 C14.50558594 6.14417969 15.24164063 6.56570313 16 7 C15.67 8.32 15.34 9.64 15 11 C10.94180817 10.34496718 7.46028718 9.05440879 3.6875 7.4375 C2.61886719 6.98246094 1.55023438 6.52742188 0.44921875 6.05859375 C-0.35902344 5.70925781 -1.16726563 5.35992187 -2 5 C-1.34 3.35 -0.68 1.7 0 0 Z " fill="#36342D" transform="translate(323,310)"/>
<path d="M0 0 C0.33 0 0.66 0 1 0 C2.7479503 5.24385089 3.19392201 9.47322267 3 15 C2.34 15 1.68 15 1 15 C1.12375 16.36125 1.12375 16.36125 1.25 17.75 C0.93860217 21.79817181 -0.12454813 22.28885966 -3 25 C-4.18576844 27.28719352 -5.07271234 29.5890521 -6 32 C-6.66 32 -7.32 32 -8 32 C-8.3403125 32.928125 -8.3403125 32.928125 -8.6875 33.875 C-10.37929835 36.61410209 -11.99244161 37.05024472 -15 38 C-14.34 36.68 -13.68 35.36 -13 34 C-12.34 34 -11.68 34 -11 34 C-10.7421875 33.278125 -10.484375 32.55625 -10.21875 31.8125 C-8.54998189 27.96149667 -6.1374007 24.86427213 -3.65625 21.5 C-0.322941 16.46859019 0.23769791 12.71683826 0.125 6.6875 C0.10695313 5.43324219 0.08890625 4.17898437 0.0703125 2.88671875 C0.04710937 1.93410156 0.02390625 0.98148438 0 0 Z " fill="#E1C76B" transform="translate(338,149)"/>
<path d="M0 0 C2.37413496 3.69559302 2.30549652 7.31273344 2.30078125 11.5625 C2.30897636 12.67288132 2.30897636 12.67288132 2.31733704 13.80569458 C2.32891684 16.2039837 2.32259467 18.60170982 2.3125 21 C2.31167419 21.81080017 2.31084839 22.62160034 2.30999756 23.45697021 C2.23149694 56.76850306 2.23149694 56.76850306 -3 62 C-3.125 56.25 -3.125 56.25 -2 54 C-1.79282822 51.32978593 -1.62622225 48.67404165 -1.5 46 C-1.13513514 38.27027027 -1.13513514 38.27027027 0 36 C0.08675538 33.30106819 0.11557897 30.62830769 0.09765625 27.9296875 C0.0962413 27.13345978 0.09482635 26.33723206 0.09336853 25.51687622 C0.08776345 22.9695462 0.07521014 20.42230353 0.0625 17.875 C0.05748565 16.14974085 0.05292263 14.42448033 0.04882812 12.69921875 C0.03779237 8.46611209 0.02052436 4.23307086 0 0 Z " fill="#E5CC72" transform="translate(444,220)"/>
<path d="M0 0 C0.99 0.66 1.98 1.32 3 2 C-5.57446809 19.34042553 -5.57446809 19.34042553 -10 27 C-10.97591583 23.61682513 -10.85856655 21.4342662 -10 18 C-9.01 18 -8.02 18 -7 18 C-6.34 15.69 -5.68 13.38 -5 11 C-4.34 11 -3.68 11 -3 11 C-3.66 9.68 -4.32 8.36 -5 7 C-3.35 4.69 -1.7 2.38 0 0 Z " fill="#E9C967" transform="translate(358,233)"/>
<path d="M0 0 C1.258125 -0.04125 2.51625 -0.0825 3.8125 -0.125 C4.52019531 -0.14820313 5.22789062 -0.17140625 5.95703125 -0.1953125 C8 0 8 0 11 2 C11 3.32 11 4.64 11 6 C8.77109005 7.11445498 7.46944894 7.16480286 5 7.1875 C3.948125 7.20876953 3.948125 7.20876953 2.875 7.23046875 C1 7 1 7 -1 5 C-0.625 2.375 -0.625 2.375 0 0 Z " fill="#0C1203" transform="translate(283,141)"/>
<path d="M0 0 C0 4.05959279 -1.51778536 5.00697946 -4.25 7.9375 C-5.03890625 8.79214844 -5.8278125 9.64679688 -6.640625 10.52734375 C-7.41921875 11.34332031 -8.1978125 12.15929687 -9 13 C-9.71671875 13.76441406 -10.4334375 14.52882813 -11.171875 15.31640625 C-13 17 -13 17 -15 17 C-15.66 18.32 -16.32 19.64 -17 21 C-17.99 20.34 -18.98 19.68 -20 19 C-17.60838068 16.57913227 -15.21096558 14.16408349 -12.8125 11.75 C-12.13896484 11.06808594 -11.46542969 10.38617188 -10.77148438 9.68359375 C-7.32936311 6.22468165 -3.90714016 2.94363181 0 0 Z " fill="#EDCD5F" transform="translate(123,93)"/>
<path d="M0 0 C0.66 0.33 1.32 0.66 2 1 C1.91599495 3.85617181 1.49345985 5.52593907 -0.58984375 7.52734375 C-1.84238781 8.53398959 -3.11438584 9.51699444 -4.40625 10.47265625 C-6.31393161 12.30085113 -6.71548576 13.39364635 -7 16 C-5.768606 19.69418201 -3.79208646 21.35109746 -1 24 C-4.99500618 22.6302836 -7.80009492 20.74277578 -11 18 C-9.51971645 13.81490516 -7.42574276 10.41688407 -4.9375 6.75 C-4.22464844 5.69296875 -3.51179687 4.6359375 -2.77734375 3.546875 C-1 1 -1 1 0 0 Z " fill="#8DA054" transform="translate(155,166)"/>
<path d="M0 0 C2.475 0.495 2.475 0.495 5 1 C5 1.66 5 2.32 5 3 C13.25 3 21.5 3 30 3 C30 3.66 30 4.32 30 5 C25.75035873 5.14513802 21.50135365 5.23402037 17.25 5.3125 C16.0434375 5.35439453 14.836875 5.39628906 13.59375 5.43945312 C12.43359375 5.45556641 11.2734375 5.47167969 10.078125 5.48828125 C9.00981445 5.51446533 7.94150391 5.54064941 6.84082031 5.56762695 C4 5 4 5 1.62011719 2.46948242 C0.81815918 1.24708862 0.81815918 1.24708862 0 0 Z " fill="#C8B365" transform="translate(240,108)"/>
<path d="M0 0 C0.99 0.33 1.98 0.66 3 1 C3 1.66 3 2.32 3 3 C4.32 2.67 5.64 2.34 7 2 C7 3.32 7 4.64 7 6 C7.66 6 8.32 6 9 6 C8.67 5.01 8.34 4.02 8 3 C8.99 2.67 9.98 2.34 11 2 C11.66 2.66 12.32 3.32 13 4 C11.4375 6.0625 11.4375 6.0625 9 8 C4.17375254 7.91225005 0.93757632 6.74437138 -3 4 C-2.01 2.68 -1.02 1.36 0 0 Z " fill="#B3A833" transform="translate(229,313)"/>
<path d="M0 0 C4.51618582 1.90683401 7.08445713 3.38016131 9 8 C8.6875 10.3125 8.6875 10.3125 8 12 C6.1875 12.625 6.1875 12.625 4 13 C3.01 12.34 2.02 11.68 1 11 C1 9.68 1 8.36 1 7 C1.66 7 2.32 7 3 7 C2.505 6.21625 2.01 5.4325 1.5 4.625 C0 2 0 2 0 0 Z " fill="#8B9F4E" transform="translate(329,326)"/>
<path d="M0 0 C3.1894996 4.7842494 4.26863974 8.22424557 4 14 C3.67 13.34 3.34 12.68 3 12 C2.21625 12.495 1.4325 12.99 0.625 13.5 C-2 15 -2 15 -4 15 C-3.52396226 12.87429688 -3.04407402 10.74945573 -2.5625 8.625 C-2.29566406 7.44164062 -2.02882813 6.25828125 -1.75390625 5.0390625 C-1 2 -1 2 0 0 Z " fill="#ABAEB2" transform="translate(439,54)"/>
<path d="M0 0 C0.33 0.66 0.66 1.32 1 2 C0.53464844 2.55300781 0.06929687 3.10601562 -0.41015625 3.67578125 C-2.60000583 6.8771584 -3.18808585 10.11611721 -4.05859375 13.85546875 C-5 16 -5 16 -6.95703125 16.765625 C-7.63121094 16.84296875 -8.30539063 16.9203125 -9 17 C-9.7425 17.185625 -10.485 17.37125 -11.25 17.5625 C-11.8275 17.706875 -12.405 17.85125 -13 18 C-9.56063777 11.27081302 -4.86702853 5.75099739 0 0 Z " fill="#E1C468" transform="translate(99,117)"/>
<path d="M0 0 C-1.5588334 3.82622743 -3.95433582 6.25147379 -7 9 C-7.99 9.33 -8.98 9.66 -10 10 C-10.33 7.69 -10.66 5.38 -11 3 C-9.54293274 2.49632243 -8.08429904 1.99717444 -6.625 1.5 C-5.81289063 1.2215625 -5.00078125 0.943125 -4.1640625 0.65625 C-2 0 -2 0 0 0 Z " fill="#254248" transform="translate(299,403)"/>
<path d="M0 0 C0.66 0 1.32 0 2 0 C2.33 1.98 2.66 3.96 3 6 C3.99 6 4.98 6 6 6 C5.67 7.65 5.34 9.3 5 11 C6.32 11.33 7.64 11.66 9 12 C9 12.66 9 13.32 9 14 C9.66 14 10.32 14 11 14 C10.67 15.65 10.34 17.3 10 19 C5.5805913 15.98440348 3.96886254 13.38543559 2.1875 8.375 C1.76855469 7.22773438 1.34960938 6.08046875 0.91796875 4.8984375 C0 2 0 2 0 0 Z " fill="#E3C768" transform="translate(326,253)"/>
<path d="M0 0 C0.99 0 1.98 0 3 0 C0.72564796 7.18216433 -2.03584181 14.0758202 -5 21 C-5.33 21 -5.66 21 -6 21 C-6.08121924 19.39667209 -6.13929134 17.79215974 -6.1875 16.1875 C-6.22230469 15.29417969 -6.25710938 14.40085938 -6.29296875 13.48046875 C-5.93972061 10.48963446 -5.17635799 9.96298956 -3 8 C-2.01371583 5.96922316 -2.01371583 5.96922316 -1.3125 3.8125 C-1.06113281 3.09707031 -0.80976563 2.38164062 -0.55078125 1.64453125 C-0.36902344 1.10183594 -0.18726563 0.55914062 0 0 Z " fill="#DDC467" transform="translate(401,140)"/>
<path d="M0 0 C7.85496312 0.30803777 14.04059197 3.53090484 21 7 C18.60776303 9.39223697 17.32240324 9.6758631 14 10 C13.01 9.34 12.02 8.68 11 8 C11 7.01 11 6.02 11 5 C7.37 3.68 3.74 2.36 0 1 C0 0.67 0 0.34 0 0 Z " fill="#E3C666" transform="translate(317,61)"/>
<path d="M0 0 C2.41445371 3.02939501 3.46292236 5.13304097 4 9 C3.34 9 2.68 9 2 9 C1.34 8.34 0.68 7.68 0 7 C-0.4021875 8.1446875 -0.4021875 8.1446875 -0.8125 9.3125 C-1.94424112 11.87380884 -2.91223401 13.19692938 -5 15 C-5.33 14.34 -5.66 13.68 -6 13 C-5.10333658 10.75689987 -4.10853317 8.55245679 -3.0625 6.375 C-2.49660156 5.18648437 -1.93070312 3.99796875 -1.34765625 2.7734375 C-0.90292969 1.85820312 -0.45820313 0.94296875 0 0 Z " fill="#D6C171" transform="translate(428,159)"/>
<path d="M0 0 C0.2475 0.78375 0.495 1.5675 0.75 2.375 C2.15389099 5.32317108 3.00675737 5.9024777 6 7 C3.75 7.25 3.75 7.25 1 7 C-1.3125 5 -1.3125 5 -3 3 C-3.37125 3.474375 -3.7425 3.94875 -4.125 4.4375 C-6.62646962 6.52205802 -8.81593418 6.64621491 -12 7 C-12.33 6.34 -12.66 5.68 -13 5 C-11.39967863 4.15930585 -9.79458829 3.32768495 -8.1875 2.5 C-6.84751953 1.80390625 -6.84751953 1.80390625 -5.48046875 1.09375 C-3 0 -3 0 0 0 Z " fill="#8B9E53" transform="translate(310,316)"/>
<path d="M0 0 C0 0.33 0 0.66 0 1 C-0.62044189 1.05534912 -1.24088379 1.11069824 -1.88012695 1.16772461 C-4.69126637 1.42060348 -7.50187322 1.67898834 -10.3125 1.9375 C-11.77719727 2.06801758 -11.77719727 2.06801758 -13.27148438 2.20117188 C-14.67817383 2.33168945 -14.67817383 2.33168945 -16.11328125 2.46484375 C-16.97735596 2.543396 -17.84143066 2.62194824 -18.73168945 2.70288086 C-21.16086712 2.94787977 -21.16086712 2.94787977 -24 4 C-26.00875442 3.72428861 -28.01178687 3.39764263 -30 3 C-30 2.67 -30 2.34 -30 2 C-20.22613213 -0.27247944 -9.9411516 -2.08070615 0 0 Z " fill="#DBCC8B" transform="translate(315,167)"/>
<path d="M0 0 C2.625 -0.1875 2.625 -0.1875 5 0 C4.33333333 2.66666667 3.66666667 5.33333333 3 8 C0.69 8 -1.62 8 -4 8 C-2.87548273 5.0280615 -1.77706209 2.66559313 0 0 Z " fill="#274045" transform="translate(312,370)"/>
<path d="M0 0 C1.12588014 0.95729916 2.2506715 1.91587895 3.375 2.875 C4.00148438 3.40867187 4.62796875 3.94234375 5.2734375 4.4921875 C6.55836651 5.61432007 7.79371975 6.79371975 9 8 C8.625 10.125 8.625 10.125 8 12 C6.68 12.33 5.36 12.66 4 13 C3.34 11.68 2.68 10.36 2 9 C2.66 8.01 3.32 7.02 4 6 C3.34 5.566875 2.68 5.13375 2 4.6875 C1.34 4.130625 0.68 3.57375 0 3 C0 2.01 0 1.02 0 0 Z " fill="#8FA354" transform="translate(322,339)"/>
<path d="M0 0 C0.66 0.33 1.32 0.66 2 1 C-2.95 9.91 -2.95 9.91 -8 19 C-8.33 17.68 -8.66 16.36 -9 15 C-8.34 15 -7.68 15 -7 15 C-7 13.35 -7 11.7 -7 10 C-6.34 9.67 -5.68 9.34 -5 9 C-5 6.69 -5 4.38 -5 2 C-4.01 1.67 -3.02 1.34 -2 1 C-1.34 1.33 -0.68 1.66 0 2 C0 1.34 0 0.68 0 0 Z " fill="#DAC167" transform="translate(425,327)"/>
<path d="M0 0 C0.66 0.33 1.32 0.66 2 1 C2 1.66 2 2.32 2 3 C1.01 3.66 0.02 4.32 -1 5 C-1.99876453 6.73978337 -2.99506004 8.48145273 -3.94921875 10.24609375 C-5.31591058 12.52730056 -7.02429717 14.23597962 -9 16 C-9.99 15.67 -10.98 15.34 -12 15 C-8.19695186 9.80789528 -4.23841458 4.84390238 0 0 Z " fill="#B0A237" transform="translate(253,286)"/>
<path d="M0 0 C0.61328125 1.90234375 0.61328125 1.90234375 1 4 C0.401875 4.515625 -0.19625 5.03125 -0.8125 5.5625 C-4.24993163 9.39278096 -4.34670615 14.01433643 -5 19 C-6.32 17.35 -7.64 15.7 -9 14 C-7.65070536 10.16336928 -5.92248975 7.34827431 -3.375 4.1875 C-2.42753906 3.00220703 -2.42753906 3.00220703 -1.4609375 1.79296875 C-0.97882813 1.20128906 -0.49671875 0.60960937 0 0 Z " fill="#DDC26A" transform="translate(312,199)"/>
<path d="M0 0 C-2.85237979 3.45743005 -4.14528078 4.89859263 -8.6875 5.4375 C-12 5 -12 5 -14 3 C-12.42274653 2.29866401 -10.83788667 1.614417 -9.25 0.9375 C-7.92742187 0.36322266 -7.92742187 0.36322266 -6.578125 -0.22265625 C-3.84743691 -1.04600008 -2.63098653 -0.9773992 0 0 Z " fill="#E1CF8B" transform="translate(218,192)"/>
<path d="M0 0 C1.45047396 2.90094791 0.45356803 4.55972596 -0.4375 7.625 C-0.72496094 8.62789062 -1.01242187 9.63078125 -1.30859375 10.6640625 C-1.65083984 11.82035156 -1.65083984 11.82035156 -2 13 C-2.66 13 -3.32 13 -4 13 C-5.62514468 14.45833358 -5.62514468 14.45833358 -7 16 C-7.66 15.67 -8.32 15.34 -9 15 C-6.03 10.05 -3.06 5.1 0 0 Z " fill="#9E9742" transform="translate(283,242)"/>
<path d="M0 0 C3.29148243 1.13499394 3.9959869 1.99283376 5.75 5.125 C6.1625 6.07375 6.575 7.0225 7 8 C6.34 8 5.68 8 5 8 C6.39759905 11.54518884 6.39759905 11.54518884 8 15 C5.2516563 13.97803186 4.18172662 13.32699573 2.734375 10.72265625 C2.24710938 9.40587891 2.24710938 9.40587891 1.75 8.0625 C1.41484375 7.18722656 1.0796875 6.31195313 0.734375 5.41015625 C0 3 0 3 0 0 Z " fill="#6E4624" transform="translate(235,385)"/>
<path d="M0 0 C0.66 0.33 1.32 0.66 2 1 C1.67 3.31 1.34 5.62 1 8 C0.01 8 -0.98 8 -2 8 C-2.33 8.66 -2.66 9.32 -3 10 C-3.99 10.495 -3.99 10.495 -5 11 C-5.33 9.02 -5.66 7.04 -6 5 C-4.68 4.67 -3.36 4.34 -2 4 C-2 3.34 -2 2.68 -2 2 C-1.34 2 -0.68 2 0 2 C0 1.34 0 0.68 0 0 Z " fill="#BBAB26" transform="translate(271,268)"/>
<path d="M0 0 C3.33864404 0.57562828 4.69102632 1.59063616 7 4 C7.99 4.33 8.98 4.66 10 5 C10.94921875 6.7421875 10.94921875 6.7421875 11.6875 8.875 C12.06455078 9.92300781 12.06455078 9.92300781 12.44921875 10.9921875 C13 13 13 13 13 16 C12.484375 15.34 11.96875 14.68 11.4375 14 C8.90083299 10.87794829 6.26160177 7.87000722 3.5859375 4.8671875 C2 3 2 3 0 0 Z " fill="#DDC469" transform="translate(323,132)"/>
<path d="M0 0 C6.09304549 3.18756546 11.61114807 6.72709561 17 11 C16.34 11.66 15.68 12.32 15 13 C15 12.34 15 11.68 15 11 C13.39125 10.62875 13.39125 10.62875 11.75 10.25 C7.90669323 8.96889774 6.68114697 7.86605366 4 5 C1.8618034 4.2127322 1.8618034 4.2127322 0 4 C0 2.68 0 1.36 0 0 Z " fill="#D9C16B" transform="translate(355,78)"/>
<path d="M0 0 C0.350625 0.433125 0.70125 0.86625 1.0625 1.3125 C3.78485635 3.68358456 6.64758216 4.6716835 10 6 C10 6.66 10 7.32 10 8 C11.65 8 13.3 8 15 8 C15.33 8.99 15.66 9.98 16 11 C15.01 11.33 14.02 11.66 13 12 C11.38671875 11.07421875 11.38671875 11.07421875 9.6875 9.6875 C6.59722212 7.32047864 3.7948443 6.01812896 0 5 C0 3.35 0 1.7 0 0 Z " fill="#DFC467" transform="translate(226,97)"/>
<path d="M0 0 C0.99 0.33 1.98 0.66 3 1 C2.67 2.32 2.34 3.64 2 5 C1.34 5 0.68 5 0 5 C0.99 6.98 1.98 8.96 3 11 C1.02 11.33 -0.96 11.66 -3 12 C-2.69230293 10.18667846 -2.37870936 8.37435655 -2.0625 6.5625 C-1.80146484 5.04849609 -1.80146484 5.04849609 -1.53515625 3.50390625 C-1 1 -1 1 0 0 Z " fill="#899C52" transform="translate(320,414)"/>
<path d="M0 0 C-3 2 -3 2 -7 2 C-7 2.66 -7 3.32 -7 4 C-6.34 4.33 -5.68 4.66 -5 5 C-6.65 5.66 -8.3 6.32 -10 7 C-10 6.34 -10 5.68 -10 5 C-11.65 4.67 -13.3 4.34 -15 4 C-12.56815788 1.56815788 -10.79947325 1.20248949 -7.5 0.3125 C-6.5203125 0.04050781 -5.540625 -0.23148438 -4.53125 -0.51171875 C-2 -1 -2 -1 0 0 Z " fill="#E6D28C" transform="translate(261,177)"/>
<path d="M0 0 C-1.1858237 3.37503669 -2.27573689 5.64722731 -5 8 C-6.74627478 5.38058783 -7.38722388 3.96175123 -8 1 C-5.07175348 0.02391783 -3.04386724 -0.08226668 0 0 Z " fill="#7A4418" transform="translate(267,420)"/>
<path d="M0 0 C0.66 0.99 1.32 1.98 2 3 C1.125 5.6875 1.125 5.6875 0 8 C-0.66 8 -1.32 8 -2 8 C-2 8.66 -2 9.32 -2 10 C-2.66 10 -3.32 10 -4 10 C-3.67 11.98 -3.34 13.96 -3 16 C-4.5625 14.75 -4.5625 14.75 -6 13 C-5.54390065 9.69327971 -4.08279047 7.11871159 -2.4375 4.25 C-1.98246094 3.45078125 -1.52742188 2.6515625 -1.05859375 1.828125 C-0.53458984 0.92320312 -0.53458984 0.92320312 0 0 Z " fill="#D1BC65" transform="translate(364,289)"/>
<path d="M0 0 C0.99 0.33 1.98 0.66 3 1 C4.1875 3.5625 4.1875 3.5625 5 6 C5.66 6 6.32 6 7 6 C9.39763185 8.39763185 9.34280586 9.33273498 9.625 12.625 C9.69976562 13.44226563 9.77453125 14.25953125 9.8515625 15.1015625 C9.92503906 16.04128906 9.92503906 16.04128906 10 17 C7.29813944 13.64137949 5.32834828 10.05348732 3.3125 6.25 C2.99216797 5.64800781 2.67183594 5.04601562 2.34179688 4.42578125 C1.5581833 2.95211989 0.77867267 1.47627806 0 0 Z " fill="#D5BD68" transform="translate(308,220)"/>
<path d="M0 0 C1.2862508 4.00166914 0.74073236 6.36979384 -0.97265625 10.140625 C-1.33230469 10.83671875 -1.69195312 11.5328125 -2.0625 12.25 C-2.42472656 12.95640625 -2.78695313 13.6628125 -3.16015625 14.390625 C-3.43730469 14.92171875 -3.71445312 15.4528125 -4 16 C-4.66 16 -5.32 16 -6 16 C-5.37183502 12.05050296 -4.1354471 8.80107972 -2.4375 5.1875 C-1.98246094 4.21167969 -1.52742188 3.23585937 -1.05859375 2.23046875 C-0.70925781 1.49441406 -0.35992187 0.75835937 0 0 Z " fill="#DAC067" transform="translate(410,200)"/>
<path d="M0 0 C1.9451 2.91765 2.45276317 4.62537285 3 8 C1.02 8.66 -0.96 9.32 -3 10 C-3 10.99 -3 11.98 -3 13 C-3.66 12.67 -4.32 12.34 -5 12 C-3.35 8.04 -1.7 4.08 0 0 Z " fill="#DBC066" transform="translate(421,175)"/>
<path d="M0 0 C5.75 1.75 5.75 1.75 8 4 C8.6328125 6.3828125 8.6328125 6.3828125 9.125 9.125 C9.29257812 10.03507812 9.46015625 10.94515625 9.6328125 11.8828125 C9.81457031 12.93082031 9.81457031 12.93082031 10 14 C7.37309236 12.68654618 6.91899539 11.26948967 5.5625 8.6875 C3.9191338 5.57077099 2.17708227 2.77371706 0 0 Z " fill="#E0C76C" transform="translate(311,106)"/>
<path d="M0 0 C-1.75 4.875 -1.75 4.875 -4 6 C-4 4.68 -4 3.36 -4 2 C-4.68707031 2.09539062 -5.37414062 2.19078125 -6.08203125 2.2890625 C-6.98308594 2.39992188 -7.88414062 2.51078125 -8.8125 2.625 C-9.70582031 2.74101562 -10.59914063 2.85703125 -11.51953125 2.9765625 C-14 3 -14 3 -17 1 C-5.47835991 -0.14806378 -5.47835991 -0.14806378 0 0 Z " fill="#634223" transform="translate(278,361)"/>
<path d="M0 0 C0.57421875 1.89453125 0.57421875 1.89453125 1 4 C-0.48442488 6.10944589 -1.64242246 6.8699718 -4.0625 7.75 C-6 8 -6 8 -8 7 C-8 6.34 -8 5.68 -8 5 C-6.25 3.7109375 -6.25 3.7109375 -4 2.375 C-3.2575 1.92898438 -2.515 1.48296875 -1.75 1.0234375 C-1.1725 0.68570312 -0.595 0.34796875 0 0 Z " fill="#263C41" transform="translate(310,423)"/>
<path d="M0 0 C0.33 0.66 0.66 1.32 1 2 C2.65 1.34 4.3 0.68 6 0 C6 4 6 4 4.125 6.25 C2 8 2 8 0 8 C0 5.36 0 2.72 0 0 Z " fill="#E7CA69" transform="translate(373,386)"/>
<path d="M0 0 C1.875 0.25 1.875 0.25 4 1 C5.0625 2.875 5.0625 2.875 6 5 C6.97850195 6.02104551 7.97980427 7.0206121 9 8 C12 11.66666667 12 11.66666667 12 14 C11.34 14 10.68 14 10 14 C8.20849615 11.88837497 6.53029747 9.77651833 4.875 7.5625 C4.40707031 6.95083984 3.93914062 6.33917969 3.45703125 5.70898438 C0 1.14832362 0 1.14832362 0 0 Z " fill="#6A4325" transform="translate(249,413)"/>
<path d="M0 0 C0.33 0.66 0.66 1.32 1 2 C1.8971875 1.505 1.8971875 1.505 2.8125 1 C5 0 5 0 8 0 C6.60667426 3.36720387 5.0210714 4.9859524 2 7 C0.4375 5.75 0.4375 5.75 -1 4 C-0.6875 1.8125 -0.6875 1.8125 0 0 Z " fill="#E9D38C" transform="translate(305,185)"/>
<path d="M0 0 C0.99 0.33 1.98 0.66 3 1 C2.04855402 2.81612488 1.08863067 4.62781081 0.125 6.4375 C-0.40867188 7.44683594 -0.94234375 8.45617187 -1.4921875 9.49609375 C-3 12 -3 12 -5 13 C-5 11.35 -5 9.7 -5 8 C-4.34 7.67 -3.68 7.34 -3 7 C-3 5.68 -3 4.36 -3 3 C-2.01 3 -1.02 3 0 3 C0 2.01 0 1.02 0 0 Z " fill="#DEC566" transform="translate(140,169)"/>
<path d="M0 0 C0.66 0 1.32 0 2 0 C2 0.66 2 1.32 2 2 C2.66 2.33 3.32 2.66 4 3 C3.34 3 2.68 3 2 3 C2 3.66 2 4.32 2 5 C1.34 5 0.68 5 0 5 C0.33 7.31 0.66 9.62 1 12 C-1.0625 9.75 -1.0625 9.75 -3 7 C-2.81740836 3.89594204 -1.77223991 2.65835987 0 0 Z " fill="#253F44" transform="translate(345,321)"/>
<path d="M0 0 C0.66 0.66 1.32 1.32 2 2 C1.67582137 5.80909895 1.14418558 7.78372163 -1 11 C-1.33 9.68 -1.66 8.36 -2 7 C-2.99 7.33 -3.98 7.66 -5 8 C-4.67 7.01 -4.34 6.02 -4 5 C-1.9375 4.3125 -1.9375 4.3125 0 4 C0 2.68 0 1.36 0 0 Z " fill="#B9AC36" transform="translate(278,253)"/>
<path d="M0 0 C0.33 0.66 0.66 1.32 1 2 C-2.63 3.32 -6.26 4.64 -10 6 C-10.33 5.34 -10.66 4.68 -11 4 C-10.34 4 -9.68 4 -9 4 C-9.33 3.01 -9.66 2.02 -10 1 C-6.52674819 -0.1577506 -3.63932552 -0.06866652 0 0 Z " fill="#899C4D" transform="translate(223,178)"/>
<path d="M0 0 C0.66 0.33 1.32 0.66 2 1 C1.67 1.66 1.34 2.32 1 3 C0.34 3 -0.32 3 -1 3 C-1 3.66 -1 4.32 -1 5 C-6.41538462 8.07692308 -6.41538462 8.07692308 -9.375 7.6875 C-9.91125 7.460625 -10.4475 7.23375 -11 7 C-10.01 6.34 -9.02 5.68 -8 5 C-7.34902344 4.56300781 -6.69804687 4.12601562 -6.02734375 3.67578125 C-5.33769531 3.22589844 -4.64804687 2.77601563 -3.9375 2.3125 C-2.89916016 1.62607422 -2.89916016 1.62607422 -1.83984375 0.92578125 C-1.23269531 0.62027344 -0.62554687 0.31476563 0 0 Z " fill="#889A50" transform="translate(294,323)"/>
<path d="M0 0 C-0.33 1.32 -0.66 2.64 -1 4 C-2.32 4 -3.64 4 -5 4 C-5.4021875 5.2065625 -5.4021875 5.2065625 -5.8125 6.4375 C-6.4003125 7.7059375 -6.4003125 7.7059375 -7 9 C-7.99 9.33 -8.98 9.66 -10 10 C-8.06029999 5.63567499 -5.33343768 0 0 0 Z " fill="#E3DA83" transform="translate(204,196)"/>
<path d="M0 0 C0.66 0.99 1.32 1.98 2 3 C1.125 5.6875 1.125 5.6875 0 8 C-0.99 8 -1.98 8 -3 8 C-3 7.34 -3 6.68 -3 6 C-4.32 6.33 -5.64 6.66 -7 7 C-4.66666667 4.66666667 -2.33333333 2.33333333 0 0 Z " fill="#8A9E4E" transform="translate(189,133)"/>
<path d="M0 0 C2.97851562 0.390625 2.97851562 0.390625 5.95703125 0.78125 C8.15471706 1.053233 8.15471706 1.053233 11 1 C12.33981486 1.3062434 13.67511887 1.63451555 15 2 C14.34 2.66 13.68 3.32 13 4 C8.24109792 3.68794085 4.35081734 3.03944563 0 1 C0 0.67 0 0.34 0 0 Z " fill="#704825" transform="translate(189,428)"/>
<path d="M0 0 C0.45375 0.495 0.9075 0.99 1.375 1.5 C2.87635519 3.22609337 2.87635519 3.22609337 5 3 C5.125 6.375 5.125 6.375 5 10 C4.34 10.66 3.68 11.32 3 12 C2.49166409 10.75336669 1.99368855 9.50250613 1.5 8.25 C1.2215625 7.55390625 0.943125 6.8578125 0.65625 6.140625 C0 4 0 4 0 0 Z " fill="#254143" transform="translate(360,374)"/>
<path d="M0 0 C0.66 0 1.32 0 2 0 C0.36041242 5.23272633 -1.38952035 10.15196636 -4 15 C-4.66 13.68 -5.32 12.36 -6 11 C-5.34 11 -4.68 11 -4 11 C-4 10.01 -4 9.02 -4 8 C-3.34 8 -2.68 8 -2 8 C-1.855625 6.865625 -1.71125 5.73125 -1.5625 4.5625 C-1 1 -1 1 0 0 Z " fill="#DBC46E" transform="translate(432,310)"/>
<path d="M0 0 C1.21346851 3.64040554 1.21346851 5.35959446 0 9 C-0.99 9 -1.98 9 -3 9 C-3 9.66 -3 10.32 -3 11 C-3.66 11 -4.32 11 -5 11 C-5 11.66 -5 12.32 -5 13 C-5.66 12.67 -6.32 12.34 -7 12 C-4.69 8.04 -2.38 4.08 0 0 Z " fill="#DBC167" transform="translate(374,272)"/>
<path d="M0 0 C1.65 0.33 3.3 0.66 5 1 C3.68 3.31 2.36 5.62 1 8 C0.67 7.34 0.34 6.68 0 6 C-0.66 5.67 -1.32 5.34 -2 5 C-1.34 3.35 -0.68 1.7 0 0 Z " fill="#E5D387" transform="translate(268,243)"/>
<path d="M0 0 C2.97 0.33 5.94 0.66 9 1 C7.66666667 3.66666667 6.33333333 6.33333333 5 9 C4.34 9 3.68 9 3 9 C2.67 8.01 2.34 7.02 2 6 C3.32 4.68 4.64 3.36 6 2 C3.03 1.505 3.03 1.505 0 1 C0 0.67 0 0.34 0 0 Z " fill="#DCCD90" transform="translate(318,166)"/>
<path d="M0 0 C1.65 0 3.3 0 5 0 C2.525 4.455 2.525 4.455 0 9 C-0.99 8.67 -1.98 8.34 -3 8 C-3 7.34 -3 6.68 -3 6 C-2.01 6 -1.02 6 0 6 C0 4.02 0 2.04 0 0 Z " fill="#DCC46D" transform="translate(339,266)"/>
<path d="M0 0 C0.66 0.33 1.32 0.66 2 1 C-1.07881696 4.87051275 -4.00073014 8.02911382 -8 11 C-8.66 10.67 -9.32 10.34 -10 10 C-6.66666667 6.66666667 -3.33333333 3.33333333 0 0 Z " fill="#264147" transform="translate(138,191)"/>
<path d="M0 0 C0.8971875 0.5259375 0.8971875 0.5259375 1.8125 1.0625 C-0.4375 3.125 -0.4375 3.125 -3.1875 5.0625 C-5.5 4.8125 -5.5 4.8125 -7.1875 4.0625 C-6.375 2.125 -6.375 2.125 -5.1875 0.0625 C-2.1875 -0.9375 -2.1875 -0.9375 0 0 Z " fill="#E1C564" transform="translate(273.1875,106.9375)"/>
<path d="M0 0 C0 3.61165822 -0.61753391 4.3710719 -3 7 C-5.88723989 8.92482659 -8.89741104 10.45858638 -12 12 C-8.32167983 7.47384007 -4.58913637 3.60575001 0 0 Z " fill="#D8C06F" transform="translate(123,93)"/>
<path d="M0 0 C1.32 0 2.64 0 4 0 C4 0.66 4 1.32 4 2 C3.34 2.66 2.68 3.32 2 4 C1.01 4 0.02 4 -1 4 C-1.12375 4.598125 -1.2475 5.19625 -1.375 5.8125 C-2 8 -2 8 -4 11 C-4.66 10.67 -5.32 10.34 -6 10 C-5.10177882 8.32332046 -4.18078439 6.65882367 -3.25 5 C-2.73953125 4.071875 -2.2290625 3.14375 -1.703125 2.1875 C-0.86007813 1.1046875 -0.86007813 1.1046875 0 0 Z " fill="#644325" transform="translate(219,385)"/>
<path d="M0 0 C2 1 2 1 2.8125 3.375 C3 6 3 6 1.5625 7.8125 C1.046875 8.204375 0.53125 8.59625 0 9 C-2 3.25 -2 3.25 -2 1 C-1.34 0.67 -0.68 0.34 0 0 Z " fill="#EEC765" transform="translate(404,354)"/>
<path d="M0 0 C3.40312738 1.05875074 6.01353231 2.00902154 9 4 C9 4.66 9 5.32 9 6 C7.03852126 7.38938077 5.03833424 8.7260411 3 10 C3 9.01 3 8.02 3 7 C3.66 7 4.32 7 5 7 C5 6.01 5 5.02 5 4 C2.525 3.01 2.525 3.01 0 2 C0 1.34 0 0.68 0 0 Z " fill="#2A4349" transform="translate(208,315)"/>
<path d="M0 0 C0 0.66 0 1.32 0 2 C-1.670625 2.12375 -1.670625 2.12375 -3.375 2.25 C-7.05753944 2.57873787 -7.05753944 2.57873787 -8.4375 5.0625 C-8.623125 5.701875 -8.80875 6.34125 -9 7 C-9.33 6.34 -9.66 5.68 -10 5 C-10.99 4.67 -11.98 4.34 -13 4 C-11.39850114 3.32694982 -9.79368971 2.66177773 -8.1875 2 C-7.29417969 1.62875 -6.40085938 1.2575 -5.48046875 0.875 C-3 0 -3 0 0 0 Z " fill="#DFC56A" transform="translate(183,60)"/>
<path d="M0 0 C0.66 0.33 1.32 0.66 2 1 C2 2.65 2 4.3 2 6 C0.35 6.33 -1.3 6.66 -3 7 C-3.66 5.68 -4.32 4.36 -5 3 C-3.35 2.67 -1.7 2.34 0 2 C0 1.34 0 0.68 0 0 Z " fill="#92A457" transform="translate(319,355)"/>
<path d="M0 0 C0.33 0.99 0.66 1.98 1 3 C2.04800781 2.87431641 2.04800781 2.87431641 3.1171875 2.74609375 C4.02726562 2.64425781 4.93734375 2.54242188 5.875 2.4375 C6.77992188 2.33308594 7.68484375 2.22867187 8.6171875 2.12109375 C11 2 11 2 13 3 C12.67 3.99 12.34 4.98 12 6 C11.34 5.67 10.68 5.34 10 5 C7.95944995 4.92934383 5.91665743 4.91578024 3.875 4.9375 C2.77929688 4.94652344 1.68359375 4.95554687 0.5546875 4.96484375 C-0.70988281 4.98224609 -0.70988281 4.98224609 -2 5 C-1.34 3.35 -0.68 1.7 0 0 Z " fill="#243A3F" transform="translate(303,306)"/>
<path d="M0 0 C3.24732932 1.62366466 3.70155136 4.75387839 5 8 C2.69 7.67 0.38 7.34 -2 7 C-2 4 -2 4 0 2 C0 1.34 0 0.68 0 0 Z " fill="#223C41" transform="translate(196,296)"/>
<path d="M0 0 C2.71675995 0.36712972 4.61063713 0.72744599 6.875 2.3125 C8 4 8 4 7.6875 6.1875 C7.460625 6.785625 7.23375 7.38375 7 8 C5.62437146 6.71034824 4.29233607 5.37310707 3 4 C3 3.34 3 2.68 3 2 C2.01 1.67 1.02 1.34 0 1 C0 0.67 0 0.34 0 0 Z " fill="#DBCC8E" transform="translate(205,233)"/>
<path d="M0 0 C3.21043882 1.38188453 5.04936365 2.92421903 7.25 5.625 C8.03117187 6.57246094 8.03117187 6.57246094 8.828125 7.5390625 C9.40820312 8.26222656 9.40820312 8.26222656 10 9 C5.57238086 7.60846256 3.0443745 5.47928514 0 2 C0 1.34 0 0.68 0 0 Z " fill="#D9C26B" transform="translate(380,97)"/>
<path d="M0 0 C-2 3 -2 3 -4.1640625 3.73046875 C-5.38222656 3.95669922 -5.38222656 3.95669922 -6.625 4.1875 C-7.85089844 4.42533203 -7.85089844 4.42533203 -9.1015625 4.66796875 C-10.04128906 4.83232422 -10.04128906 4.83232422 -11 5 C-11 4.34 -11 3.68 -11 3 C-9.73581754 2.30034557 -8.46334598 1.61565237 -7.1875 0.9375 C-6.47980469 0.55464844 -5.77210938 0.17179687 -5.04296875 -0.22265625 C-3 -1 -3 -1 0 0 Z " fill="#D7BF68" transform="translate(162,70)"/>
<path d="M0 0 C0.66 0.66 1.32 1.32 2 2 C0.35 4.97 -1.3 7.94 -3 11 C-3.95904856 7.16380575 -3.91892116 5.67568464 -3 2 C-2.01 2 -1.02 2 0 2 C0 1.34 0 0.68 0 0 Z " fill="#DEC36E" transform="translate(351,249)"/>
<path d="M0 0 C0.12375 0.61875 0.2475 1.2375 0.375 1.875 C0.87197356 4.19120832 0.87197356 4.19120832 3 6 C-1.75 9 -1.75 9 -4 9 C-2.94124926 5.59687262 -1.99097846 2.98646769 0 0 Z " fill="#D7BD64" transform="translate(85,135)"/>
<path d="M0 0 C1.65 1.65 3.3 3.3 5 5 C4.01 7.64 3.02 10.28 2 13 C1.67 13 1.34 13 1 13 C1.01160156 12.39671875 1.02320313 11.7934375 1.03515625 11.171875 C1.04417969 10.37265625 1.05320312 9.5734375 1.0625 8.75 C1.07410156 7.96109375 1.08570313 7.1721875 1.09765625 6.359375 C1.00385306 4.09308998 0.63241063 2.1711105 0 0 Z " fill="#DDC46D" transform="translate(404,122)"/>
<path d="M0 0 C1.98 0.66 3.96 1.32 6 2 C6 2.99 6 3.98 6 5 C7.32 5.66 8.64 6.32 10 7 C9.67 7.66 9.34 8.32 9 9 C7.49428343 7.88266271 5.99555708 6.75589965 4.5 5.625 C3.6646875 4.99851562 2.829375 4.37203125 1.96875 3.7265625 C1.3190625 3.15679687 0.669375 2.58703125 0 2 C0 1.34 0 0.68 0 0 Z " fill="#264248" transform="translate(145,394)"/>
<path d="M0 0 C2.36574234 3.5486135 2.10865265 4.5764525 1.625 8.6875 C1.51414062 9.68136719 1.40328125 10.67523438 1.2890625 11.69921875 C1.19367188 12.45847656 1.09828125 13.21773438 1 14 C0.67 14 0.34 14 0 14 C-1.09321611 9.49048355 -2.13999677 4.27999354 0 0 Z " fill="#EED072" transform="translate(374,343)"/>
<path d="M0 0 C1.11841676 3.35525029 0.91538821 3.97089854 -0.3125 7.125 C-0.57675781 7.82882812 -0.84101563 8.53265625 -1.11328125 9.2578125 C-2 11 -2 11 -4 12 C-3.71905418 10.1858073 -3.42493567 8.37364999 -3.125 6.5625 C-2.96257812 5.55316406 -2.80015625 4.54382813 -2.6328125 3.50390625 C-2.42398437 2.67761719 -2.21515625 1.85132813 -2 1 C-1.34 0.67 -0.68 0.34 0 0 Z " fill="#DFC26B" transform="translate(437,297)"/>
<path d="M0 0 C4.75 0.75 4.75 0.75 7 3 C7.125 5.625 7.125 5.625 7 8 C4.35247996 5.42215154 2.05567935 3.08351902 0 0 Z " fill="#DECB89" transform="translate(222,252)"/>
<path d="M0 0 C3.3 0 6.6 0 10 0 C10.33 0.99 10.66 1.98 11 3 C7.04 2.67 3.08 2.34 -1 2 C-0.67 1.34 -0.34 0.68 0 0 Z " fill="#D2B564" transform="translate(291,99)"/>
<path d="M0 0 C3.63 0 7.26 0 11 0 C10.67 0.66 10.34 1.32 10 2 C7.27734375 2.6328125 7.27734375 2.6328125 3.9375 3.125 C2.83277344 3.29257812 1.72804688 3.46015625 0.58984375 3.6328125 C-0.69212891 3.81457031 -0.69212891 3.81457031 -2 4 C-2 3.34 -2 2.68 -2 2 C-1.34 2 -0.68 2 0 2 C0 1.34 0 0.68 0 0 Z " fill="#634328" transform="translate(284,432)"/>
<path d="M0 0 C0.66 0.99 1.32 1.98 2 3 C2.66 3 3.32 3 4 3 C4 3.66 4 4.32 4 5 C1.03 5.66 -1.94 6.32 -5 7 C-3.35 4.69 -1.7 2.38 0 0 Z " fill="#91A059" transform="translate(298,390)"/>
<path d="M0 0 C1.20628008 2.33214148 2.1654738 4.49642139 3 7 C1.02 7 -0.96 7 -3 7 C-1.125 1.125 -1.125 1.125 0 0 Z " fill="#83944F" transform="translate(205,348)"/>
<path d="M0 0 C0.66 0.99 1.32 1.98 2 3 C0.35 4.65 -1.3 6.3 -3 8 C-3.75 6.25 -3.75 6.25 -4 4 C-2.0625 1.75 -2.0625 1.75 0 0 Z " fill="#EBCB6C" transform="translate(369,284)"/>
<path d="M0 0 C0.66 0 1.32 0 2 0 C1.6875 2.375 1.6875 2.375 1 5 C0.01 5.66 -0.98 6.32 -2 7 C-2.66 5.35 -3.32 3.7 -4 2 C-2.68 2 -1.36 2 0 2 C0 1.34 0 0.68 0 0 Z " fill="#DFCE8A" transform="translate(247,276)"/>
<path d="M0 0 C-4.625 4.875 -4.625 4.875 -8 6 C-8 5.01 -8 4.02 -8 3 C-7.01 3 -6.02 3 -5 3 C-5.33 2.01 -5.66 1.02 -6 0 C-3 -1 -3 -1 0 0 Z " fill="#DBC063" transform="translate(176,134)"/>
<path d="M0 0 C0.66 0.33 1.32 0.66 2 1 C-0.64 3.97 -3.28 6.94 -6 10 C-6.33 9.01 -6.66 8.02 -7 7 C-4.69 4.69 -2.38 2.38 0 0 Z " fill="#5D5B5B" transform="translate(114,89)"/>
<path d="M0 0 C0.33 1.32 0.66 2.64 1 4 C1.66 4.33 2.32 4.66 3 5 C1.6875 7.5 1.6875 7.5 0 10 C-0.99 10 -1.98 10 -3 10 C-2.01 6.7 -1.02 3.4 0 0 Z " fill="#233A42" transform="translate(338,347)"/>
<path d="M0 0 C0.66 0.33 1.32 0.66 2 1 C0.02 3.97 -1.96 6.94 -4 10 C-4.66 8.68 -5.32 7.36 -6 6 C-5.01 6 -4.02 6 -3 6 C-2.690625 5.195625 -2.38125 4.39125 -2.0625 3.5625 C-1 1 -1 1 0 0 Z " fill="#DBC06F" transform="translate(414,346)"/>
<path d="M0 0 C1.32 0.66 2.64 1.32 4 2 C3.67 2.66 3.34 3.32 3 4 C2.34 4 1.68 4 1 4 C1 4.66 1 5.32 1 6 C-0.32 5.67 -1.64 5.34 -3 5 C-2.01 3.35 -1.02 1.7 0 0 Z " fill="#AB9F2B" transform="translate(268,266)"/>
<path d="M0 0 C1.5625 1.8125 1.5625 1.8125 3 4 C2.67 4.99 2.34 5.98 2 7 C0.35 7 -1.3 7 -3 7 C-2.01 4.69 -1.02 2.38 0 0 Z " fill="#ABAFB1" transform="translate(364,244)"/>
<path d="M0 0 C0.66 0.33 1.32 0.66 2 1 C1.34 4.96 0.68 8.92 0 13 C-2.0903754 8.81924919 -2.22667078 8.41186737 -1.125 4.25 C-0.92132813 3.45078125 -0.71765625 2.6515625 -0.5078125 1.828125 C-0.34023437 1.22484375 -0.17265625 0.6215625 0 0 Z " fill="#CFBB66" transform="translate(91,246)"/>
<path d="M0 0 C0.66 0.33 1.32 0.66 2 1 C0.68 3.64 -0.64 6.28 -2 9 C-2.66 9 -3.32 9 -4 9 C-4 7.68 -4 6.36 -4 5 C-3.34 5 -2.68 5 -2 5 C-1.34 3.35 -0.68 1.7 0 0 Z " fill="#E0C46B" transform="translate(367,218)"/>
<path d="M0 0 C0.66 0.33 1.32 0.66 2 1 C1.01 2.98 0.02 4.96 -1 7 C-1.99 6.67 -2.98 6.34 -4 6 C-3.6875 4.125 -3.6875 4.125 -3 2 C-2.01 1.34 -1.02 0.68 0 0 Z " fill="#E2D28F" transform="translate(287,217)"/>
<path d="M0 0 C0.66 0 1.32 0 2 0 C3.35439668 2.70879335 3.06501451 5.00933268 3 8 C1.68 7.67 0.36 7.34 -1 7 C-0.34 6.67 0.32 6.34 1 6 C0.34 4.35 -0.32 2.7 -1 1 C-0.67 0.67 -0.34 0.34 0 0 Z " fill="#8D9D54" transform="translate(309,118)"/>
<path d="M0 0 C1.52519276 0.08937803 3.04681929 0.24537146 4.5625 0.4375 C5.80193359 0.59025391 5.80193359 0.59025391 7.06640625 0.74609375 C7.70449219 0.82988281 8.34257812 0.91367188 9 1 C6.05047042 2.49997444 3.08510827 3.80023567 0 5 C-0.5625 3.0625 -0.5625 3.0625 -1 1 C-0.67 0.67 -0.34 0.34 0 0 Z " fill="#E2C467" transform="translate(200,100)"/>
<path d="M0 0 C2 3 2 3 3 6 C2.01 6.66 1.02 7.32 0 8 C-0.66 7.67 -1.32 7.34 -2 7 C-1.34 4.69 -0.68 2.38 0 0 Z " fill="#233F45" transform="translate(229,393)"/>
<path d="M0 0 C1.22589844 0.01353516 1.22589844 0.01353516 2.4765625 0.02734375 C3.41628906 0.04474609 3.41628906 0.04474609 4.375 0.0625 C4.375 0.3925 4.375 0.7225 4.375 1.0625 C2.725 1.0625 1.075 1.0625 -0.625 1.0625 C-0.625 1.7225 -0.625 2.3825 -0.625 3.0625 C-2.605 3.0625 -4.585 3.0625 -6.625 3.0625 C-6.625 2.4025 -6.625 1.7425 -6.625 1.0625 C-4.21954362 -0.14022819 -2.67503047 -0.03821472 0 0 Z " fill="#96AC50" transform="translate(312.625,384.9375)"/>
<path d="M0 0 C3.45925163 1.2491742 6.14693203 2.67527795 9 5 C8.67 6.32 8.34 7.64 8 9 C7.4225 8.21625 6.845 7.4325 6.25 6.625 C4.17102363 4.19952756 2.90959667 3.14305583 0 2 C0 1.34 0 0.68 0 0 Z " fill="#674325" transform="translate(96,327)"/>
<path d="M0 0 C0.66 0.33 1.32 0.66 2 1 C2.625 3.0625 2.625 3.0625 3 5 C2.34 5 1.68 5 1 5 C-0.62514468 6.45833358 -0.62514468 6.45833358 -2 8 C-2.66 7.67 -3.32 7.34 -4 7 C-2.68 4.69 -1.36 2.38 0 0 Z " fill="#A29B2F" transform="translate(278,250)"/>
<path d="M0 0 C-1.1858237 3.37503669 -2.27573689 5.64722731 -5 8 C-6 6 -6 6 -5.1875 3.4375 C-3.79322886 0.57557503 -3.17112511 0 0 0 Z " fill="#D2BB60" transform="translate(428,166)"/>
<path d="M0 0 C0 3.99904969 -1.72586967 5.80200422 -4 9 C-4.99 8.34 -5.98 7.68 -7 7 C-4.69 4.69 -2.38 2.38 0 0 Z " fill="#D7C068" transform="translate(110,105)"/>
<path d="M0 0 C0.66 1.32 1.32 2.64 2 4 C-0.40339772 6.76390737 -1.16263678 7.04065919 -5 8 C-3.35 5.36 -1.7 2.72 0 0 Z " fill="#233A3F" transform="translate(182,390)"/>
<path d="M0 0 C0.66 0 1.32 0 2 0 C2.33 0.99 2.66 1.98 3 3 C2.38125 3.2475 1.7625 3.495 1.125 3.75 C-1.35068687 5.20628639 -1.95125002 6.37812506 -3 9 C-3 5.30581799 -1.71820705 3.22163822 0 0 Z " fill="#8D9E56" transform="translate(210,339)"/>
<path d="M0 0 C0.66 0 1.32 0 2 0 C1.01 3.96 0.02 7.92 -1 12 C-1.33 12 -1.66 12 -2 12 C-1.85962479 10.18706911 -1.71255111 8.3746557 -1.5625 6.5625 C-1.48128906 5.55316406 -1.40007812 4.54382813 -1.31640625 3.50390625 C-1 1 -1 1 0 0 Z " fill="#DFC66C" transform="translate(440,284)"/>
<path d="M0 0 C3.465 1.98 3.465 1.98 7 4 C7 4.99 7 5.98 7 7 C4.69 6.01 2.38 5.02 0 4 C0 2.68 0 1.36 0 0 Z " fill="#E5CA6F" transform="translate(355,78)"/>
<path d="M0 0 C1.32 0.33 2.64 0.66 4 1 C2.515 4.465 2.515 4.465 1 8 C0.67 8 0.34 8 0 8 C0 5.36 0 2.72 0 0 Z " fill="#8DA153" transform="translate(328,413)"/>
<path d="M0 0 C1.0625 1.8125 1.0625 1.8125 2 4 C1.67 4.99 1.34 5.98 1 7 C-0.32 6.34 -1.64 5.68 -3 5 C-2.67 4.01 -2.34 3.02 -2 2 C-1.34 2 -0.68 2 0 2 C0 1.34 0 0.68 0 0 Z " fill="#7B4518" transform="translate(247,399)"/>
<path d="M0 0 C0.66 0 1.32 0 2 0 C1.34 2.97 0.68 5.94 0 9 C-0.66 8.67 -1.32 8.34 -2 8 C-1.125 1.125 -1.125 1.125 0 0 Z " fill="#6A4222" transform="translate(220,391)"/>
<path d="M0 0 C0.99 0.33 1.98 0.66 3 1 C2.67 2.32 2.34 3.64 2 5 C0.35 4.67 -1.3 4.34 -3 4 C-2.01 2.68 -1.02 1.36 0 0 Z " fill="#B3AB38" transform="translate(229,313)"/>
<path d="M0 0 C2.9719385 1.12451727 5.33440687 2.22293791 8 4 C7.67 4.99 7.34 5.98 7 7 C5.83040013 6.02433888 4.66438823 5.044375 3.5 4.0625 C2.8503125 3.51722656 2.200625 2.97195312 1.53125 2.41015625 C1.0259375 1.94480469 0.520625 1.47945312 0 1 C0 0.67 0 0.34 0 0 Z " fill="#CEC087" transform="translate(189,217)"/>
<path d="M0 0 C0.66 0 1.32 0 2 0 C1.39009109 3.55780196 0.4216319 6.6828589 -1 10 C-1.33 10 -1.66 10 -2 10 C-2.17942163 6.05272412 -2.09350689 3.4019487 0 0 Z " fill="#DBC668" transform="translate(389,170)"/>
<path d="M0 0 C1.35432675 1.31200404 2.68733482 2.64631404 4 4 C4 4.33 4 4.66 4 5 C2.35 5 0.7 5 -1 5 C-1 4.34 -1 3.68 -1 3 C-1.66 3 -2.32 3 -3 3 C-3 2.34 -3 1.68 -3 1 C-2.01 0.67 -1.02 0.34 0 0 Z " fill="#869D4A" transform="translate(324,145)"/>
<path d="M0 0 C2.31 1.65 4.62 3.3 7 5 C6.67 5.66 6.34 6.32 6 7 C4.125 6.875 4.125 6.875 2 6 C0.75 2.9375 0.75 2.9375 0 0 Z " fill="#8C9E58" transform="translate(202,143)"/>
<path d="M0 0 C2.31 1.98 4.62 3.96 7 6 C6.34 6.66 5.68 7.32 5 8 C1.91763635 5.21592961 1.04793663 4.19174654 0 0 Z " fill="#D5BF65" transform="translate(390,106)"/>
<path d="M0 0 C0.66 0.66 1.32 1.32 2 2 C1.34 2 0.68 2 0 2 C0 3.65 0 5.3 0 7 C-1.98 7.99 -1.98 7.99 -4 9 C-3.52418802 7.68628013 -3.04424851 6.37405454 -2.5625 5.0625 C-2.29566406 4.33160156 -2.02882812 3.60070312 -1.75390625 2.84765625 C-1 1 -1 1 0 0 Z " fill="#223C41" transform="translate(193,371)"/>
<path d="M0 0 C0.33 0.99 0.66 1.98 1 3 C-0.65 4.65 -2.3 6.3 -4 8 C-4.33 7.01 -4.66 6.02 -5 5 C-4.34 5 -3.68 5 -3 5 C-2.5359375 4.0409375 -2.5359375 4.0409375 -2.0625 3.0625 C-1 1 -1 1 0 0 Z " fill="#010910" transform="translate(344,337)"/>
<path d="M0 0 C0.99 0.66 1.98 1.32 3 2 C1.62845496 4.95409701 0.01136276 7.44008376 -2 10 C-1.46274105 6.62294375 -0.88935377 3.303314 0 0 Z " fill="#273F42" transform="translate(331,280)"/>
<path d="M0 0 C0.66 1.32 1.32 2.64 2 4 C0.35 5.32 -1.3 6.64 -3 8 C-3.66 7.67 -4.32 7.34 -5 7 C-3.35 4.69 -1.7 2.38 0 0 Z " fill="#2B2412" transform="translate(260,263)"/>
<path d="M0 0 C0.33 0 0.66 0 1 0 C1 1.65 1 3.3 1 5 C0.34 5 -0.32 5 -1 5 C-1 5.99 -1 6.98 -1 8 C-1.99 7.67 -2.98 7.34 -4 7 C-2.68 4.69 -1.36 2.38 0 0 Z " fill="#CEB764" transform="translate(396,230)"/>
<path d="M0 0 C1 2 1 2 0.44140625 3.9453125 C0.15136719 4.66460937 -0.13867188 5.38390625 -0.4375 6.125 C-0.72496094 6.84945312 -1.01242188 7.57390625 -1.30859375 8.3203125 C-1.53675781 8.87460938 -1.76492187 9.42890625 -2 10 C-2.33 10 -2.66 10 -3 10 C-2.88637738 8.5199159 -2.75877092 7.04089926 -2.625 5.5625 C-2.55539063 4.73878906 -2.48578125 3.91507813 -2.4140625 3.06640625 C-2.27742188 2.38449219 -2.14078125 1.70257813 -2 1 C-1.34 0.67 -0.68 0.34 0 0 Z " fill="#DBC16B" transform="translate(99,227)"/>
<path d="M0 0 C0.99 0 1.98 0 3 0 C3.75 1.6875 3.75 1.6875 4 4 C2.0625 6.75 2.0625 6.75 0 9 C0 6.03 0 3.06 0 0 Z " fill="#E4C76C" transform="translate(100,218)"/>
<path d="M0 0 C-0.33 0.99 -0.66 1.98 -1 3 C-4.96 2.67 -8.92 2.34 -13 2 C-13 1.67 -13 1.34 -13 1 C-11.58366664 0.83052421 -10.16691467 0.66454493 -8.75 0.5 C-7.56664062 0.36078125 -7.56664062 0.36078125 -6.359375 0.21875 C-4 0 -4 0 0 0 Z " fill="#91A45A" transform="translate(226,150)"/>
<path d="M0 0 C0.33 0.66 0.66 1.32 1 2 C-1 5 -1 5 -4.125 5.6875 C-5.07375 5.790625 -6.0225 5.89375 -7 6 C-2.25 1.125 -2.25 1.125 0 0 Z " fill="#D1BA65" transform="translate(132,86)"/>
<path d="M0 0 C0.66 0.99 1.32 1.98 2 3 C0.35 5.31 -1.3 7.62 -3 10 C-3.33 9.34 -3.66 8.68 -4 8 C-3.22265625 6.0546875 -3.22265625 6.0546875 -2.0625 3.875 C-1.49208984 2.78832031 -1.49208984 2.78832031 -0.91015625 1.6796875 C-0.60980469 1.12539063 -0.30945313 0.57109375 0 0 Z " fill="#180701" transform="translate(216,408)"/>
<path d="M0 0 C1.9375 0.8125 1.9375 0.8125 4 2 C4.33 2.99 4.66 3.98 5 5 C3.68 5 2.36 5 1 5 C0.67 3.35 0.34 1.7 0 0 Z " fill="#5D3D24" transform="translate(235,385)"/>
<path d="M0 0 C0.66 0.33 1.32 0.66 2 1 C1.67 2.65 1.34 4.3 1 6 C0.01 6 -0.98 6 -2 6 C-1.125 1.125 -1.125 1.125 0 0 Z " fill="#A8A027" transform="translate(272,260)"/>
<path d="M0 0 C0.33 0 0.66 0 1 0 C0.67 2.31 0.34 4.62 0 7 C-1.32 6.34 -2.64 5.68 -4 5 C-2.69254251 3.31295807 -1.35827971 1.64639965 0 0 Z " fill="#F0CE6A" transform="translate(95,234)"/>
<path d="M0 0 C2.125 0.9375 2.125 0.9375 4 2 C2.625 3.5 2.625 3.5 1 5 C0.34 5 -0.32 5 -1 5 C-1.33 3.68 -1.66 2.36 -2 1 C-1.34 0.67 -0.68 0.34 0 0 Z " fill="#DDC063" transform="translate(164,139)"/>
<path d="M0 0 C5.75 1.75 5.75 1.75 8 4 C7.01 4.495 7.01 4.495 6 5 C3.96855359 4.06553465 1.96466413 3.06775224 0 2 C0 1.34 0 0.68 0 0 Z " fill="#D5C06B" transform="translate(330,65)"/>
</svg>
